999
"DXF R12 Output" (www.mydxf.blogspot.com)
 0 
SECTION
 2 
HEADER
 9 
$ACADVER
 1 
AC1009
 9 
$EXTMIN
 10 
 0 
 20 
 0 
 9 
$EXTMAX
 10 
 8.5 
 20 
 11 
 0 
ENDSEC
 0 
SECTION
 2 
ENTITIES
0
LINE
8
Layer 1
10
0.793749
20
73.291900
11
-0.793749
21
71.704500
0
LINE
8
Layer 1
10
0.000000
20
73.821100
11
0.000000
21
71.175300
0
LINE
8
Layer 1
10
2.116660
20
71.439900
11
1.058330
21
70.381570
0
LINE
8
Layer 1
10
1.587500
20
71.969000
11
0.529170
21
70.910670
0
LINE
8
Layer 1
10
1.058330
20
72.498200
11
0.000000
21
71.439870
0
LINE
8
0
10
17.810400
20
5.739730
11
25.841620
21
8.400960
0
LINE
8
0
10
25.841620
20
8.400960
11
25.999854
21
8.451096
0
LINE
8
0
10
25.999854
20
8.451096
11
26.151465
21
8.506457
0
LINE
8
0
10
26.151465
20
8.506457
11
26.296393
21
8.567047
0
LINE
8
0
10
26.296393
20
8.567047
11
26.434683
21
8.632864
0
LINE
8
0
10
26.434683
20
8.632864
11
26.566321
21
8.703910
0
LINE
8
0
10
26.566321
20
8.703910
11
26.691305
21
8.780184
0
LINE
8
0
10
26.691305
20
8.780184
11
26.809637
21
8.861681
0
LINE
8
0
10
26.809637
20
8.861681
11
26.921317
21
8.948414
0
LINE
8
0
10
26.921317
20
8.948414
11
27.026343
21
9.040367
0
LINE
8
0
10
27.026343
20
9.040367
11
27.124699
21
9.137549
0
LINE
8
0
10
27.124699
20
9.137549
11
27.215001
21
9.242808
0
LINE
8
0
10
27.215001
20
9.242808
11
27.295781
21
9.359000
0
LINE
8
0
10
27.295781
20
9.359000
11
27.367070
21
9.486124
0
LINE
8
0
10
27.367070
20
9.486124
11
27.428853
21
9.624175
0
LINE
8
0
10
27.428853
20
9.624175
11
27.481113
21
9.773156
0
LINE
8
0
10
27.481113
20
9.773156
11
27.523899
21
9.933067
0
LINE
8
0
10
27.523899
20
9.933067
11
27.557165
21
10.103908
0
LINE
8
0
10
27.557165
20
10.103908
11
27.580925
21
10.285678
0
LINE
8
0
10
27.580925
20
10.285678
11
27.595186
21
10.478382
0
LINE
8
0
10
27.595186
20
10.478382
11
27.599922
21
10.682013
0
LINE
8
0
10
27.599922
20
10.682013
11
27.599900
21
27.077100
0
LINE
8
0
10
27.599900
20
27.077100
11
7.878300
21
62.148300
0
LINE
8
0
10
7.878300
20
62.148300
11
7.800603
21
62.281602
0
LINE
8
0
10
7.800603
20
62.281602
11
7.719579
21
62.415373
0
LINE
8
0
10
7.719579
20
62.415373
11
7.635228
21
62.549622
0
LINE
8
0
10
7.635228
20
62.549622
11
7.547550
21
62.684356
0
LINE
8
0
10
7.547550
20
62.684356
11
7.456542
21
62.819547
0
LINE
8
0
10
7.456542
20
62.819547
11
7.362210
21
62.955230
0
LINE
8
0
10
7.362210
20
62.955230
11
7.264555
21
63.091376
0
LINE
8
0
10
7.264555
20
63.091376
11
7.163572
21
63.227993
0
LINE
8
0
10
7.163572
20
63.227993
11
7.059258
21
63.365103
0
LINE
8
0
10
7.059258
20
63.365103
11
6.951620
21
63.502684
0
LINE
8
0
10
6.951620
20
63.502684
11
6.840186
21
63.636931
0
LINE
8
0
10
6.840186
20
63.636931
11
6.724465
21
63.764050
0
LINE
8
0
10
6.724465
20
63.764050
11
6.604477
21
63.884038
0
LINE
8
0
10
6.604477
20
63.884038
11
6.480202
21
63.996906
0
LINE
8
0
10
6.480202
20
63.996906
11
6.351662
21
64.102641
0
LINE
8
0
10
6.351662
20
64.102641
11
6.218833
21
64.201246
0
LINE
8
0
10
6.218833
20
64.201246
11
6.081734
21
64.292736
0
LINE
8
0
10
6.081734
20
64.292736
11
5.940354
21
64.377085
0
LINE
8
0
10
5.940354
20
64.377085
11
5.794701
21
64.454312
0
LINE
8
0
10
5.794701
20
64.454312
11
5.644767
21
64.524402
0
LINE
8
0
10
5.644767
20
64.524402
11
0.132217
21
66.900502
0
LINE
8
0
10
0.132217
20
66.900502
11
0.132225
21
70.749800
0
LINE
8
0
10
0.132225
20
70.749800
11
25.841600
21
70.749800
0
LINE
8
0
10
25.841600
20
70.749800
11
25.841600
21
66.900500
0
LINE
8
0
10
25.841600
20
66.900500
11
18.143030
21
63.716530
0
LINE
8
0
10
18.143030
20
63.716530
11
31.686830
21
40.573330
0
LINE
8
0
10
31.686830
20
40.573330
11
34.157960
21
34.728120
0
LINE
8
0
10
34.157960
20
34.728120
11
35.155900
21
34.728200
0
LINE
8
0
10
35.155900
20
34.728200
11
51.075800
21
63.431500
0
LINE
8
0
10
51.075800
20
63.431500
11
43.329720
21
66.900600
0
LINE
8
0
10
43.329720
20
66.900600
11
43.329700
21
70.749800
0
LINE
8
0
10
43.329700
20
70.749800
11
65.665100
21
70.749800
0
LINE
8
0
10
65.665100
20
70.749800
11
65.665100
21
66.900500
0
LINE
8
0
10
65.665100
20
66.900500
11
60.295110
21
64.334320
0
LINE
8
0
10
60.295110
20
64.334320
11
60.162512
21
64.264221
0
LINE
8
0
10
60.162512
20
64.264221
11
60.030890
21
64.186998
0
LINE
8
0
10
60.030890
20
64.186998
11
59.900199
21
64.102646
0
LINE
8
0
10
59.900199
20
64.102646
11
59.770469
21
64.011172
0
LINE
8
0
10
59.770469
20
64.011172
11
59.641686
21
63.912561
0
LINE
8
0
10
59.641686
20
63.912561
11
59.513847
21
63.806823
0
LINE
8
0
10
59.513847
20
63.806823
11
59.386956
21
63.693955
0
LINE
8
0
10
59.386956
20
63.693955
11
59.261025
21
63.573961
0
LINE
8
0
10
59.261025
20
63.573961
11
59.136055
21
63.446847
0
LINE
8
0
10
59.136055
20
63.446847
11
59.012018
21
63.312592
0
LINE
8
0
10
59.012018
20
63.312592
11
58.890831
21
63.175019
0
LINE
8
0
10
58.890831
20
63.175019
11
58.774407
21
63.037920
0
LINE
8
0
10
58.774407
20
63.037920
11
58.662729
21
62.901292
0
LINE
8
0
10
58.662729
20
62.901292
11
58.555811
21
62.765138
0
LINE
8
0
10
58.555811
20
62.765138
11
58.453624
21
62.629465
0
LINE
8
0
10
58.453624
20
62.629465
11
58.356210
21
62.494263
0
LINE
8
0
10
58.356210
20
62.494263
11
58.263545
21
62.359537
0
LINE
8
0
10
58.263545
20
62.359537
11
58.175637
21
62.225290
0
LINE
8
0
10
58.175637
20
62.225290
11
58.092463
21
62.091509
0
LINE
8
0
10
58.092463
20
62.091509
11
58.014048
21
61.958215
0
LINE
8
0
10
58.014048
20
61.958215
11
38.054848
21
27.314715
0
LINE
8
0
10
38.054848
20
27.314715
11
38.054800
21
10.682000
0
LINE
8
0
10
38.054800
20
10.682000
11
38.059324
21
10.478369
0
LINE
8
0
10
38.059324
20
10.478369
11
38.072871
21
10.285665
0
LINE
8
0
10
38.072871
20
10.285665
11
38.095440
21
10.103891
0
LINE
8
0
10
38.095440
20
10.103891
11
38.127055
21
9.933052
0
LINE
8
0
10
38.127055
20
9.933052
11
38.167674
21
9.773141
0
LINE
8
0
10
38.167674
20
9.773141
11
38.217341
21
9.624160
0
LINE
8
0
10
38.217341
20
9.624160
11
38.276026
21
9.486109
0
LINE
8
0
10
38.276026
20
9.486109
11
38.343762
21
9.358990
0
LINE
8
0
10
38.343762
20
9.358990
11
38.420496
21
9.242793
0
LINE
8
0
10
38.420496
20
9.242793
11
38.506282
21
9.137534
0
LINE
8
0
10
38.506282
20
9.137534
11
38.599193
21
9.040353
0
LINE
8
0
10
38.599193
20
9.040353
11
38.697305
21
8.948394
0
LINE
8
0
10
38.697305
20
8.948394
11
38.800670
21
8.861666
0
LINE
8
0
10
38.800670
20
8.861666
11
38.909265
21
8.780170
0
LINE
8
0
10
38.909265
20
8.780170
11
39.023081
21
8.703896
0
LINE
8
0
10
39.023081
20
8.703896
11
39.142130
21
8.632850
0
LINE
8
0
10
39.142130
20
8.632850
11
39.266397
21
8.567032
0
LINE
8
0
10
39.266397
20
8.567032
11
39.395884
21
8.506443
0
LINE
8
0
10
39.395884
20
8.506443
11
39.530618
21
8.451076
0
LINE
8
0
10
39.530618
20
8.451076
11
39.670572
21
8.400945
0
LINE
8
0
10
39.670572
20
8.400945
11
47.796832
21
5.739715
0
LINE
8
0
10
47.796832
20
5.739715
11
47.796800
21
1.795400
0
LINE
8
0
10
47.796800
20
1.795400
11
17.810400
21
1.795400
0
LINE
8
0
10
17.810400
20
1.795400
11
17.810400
21
5.739730
0
LINE
8
0
10
106.867000
20
0.227173
11
105.260280
21
0.251885
0
LINE
8
0
10
105.260280
20
0.251885
11
103.690640
21
0.326021
0
LINE
8
0
10
103.690640
20
0.326021
11
102.158030
21
0.449579
0
LINE
8
0
10
102.158030
20
0.449579
11
100.662500
21
0.622558
0
LINE
8
0
10
100.662500
20
0.622558
11
99.204070
21
0.844964
0
LINE
8
0
10
99.204070
20
0.844964
11
97.782680
21
1.116786
0
LINE
8
0
10
97.782680
20
1.116786
11
96.398360
21
1.438037
0
LINE
8
0
10
96.398360
20
1.438037
11
95.051120
21
1.808707
0
LINE
8
0
10
95.051120
20
1.808707
11
93.740940
21
2.228799
0
LINE
8
0
10
93.740940
20
2.228799
11
92.467810
21
2.698320
0
LINE
8
0
10
92.467810
20
2.698320
11
91.232960
21
3.214646
0
LINE
8
0
10
91.232960
20
3.214646
11
90.037540
21
3.775170
0
LINE
8
0
10
90.037540
20
3.775170
11
88.881570
21
4.379885
0
LINE
8
0
10
88.881570
20
4.379885
11
87.765040
21
5.028799
0
LINE
8
0
10
87.765040
20
5.028799
11
86.687950
21
5.721906
0
LINE
8
0
10
86.687950
20
5.721906
11
85.650310
21
6.459212
0
LINE
8
0
10
85.650310
20
6.459212
11
84.652112
21
7.240711
0
LINE
8
0
10
84.652112
20
7.240711
11
83.693343
21
8.066406
0
LINE
8
0
10
83.693343
20
8.066406
11
82.774031
21
8.936297
0
LINE
8
0
10
82.774031
20
8.936297
11
81.894181
21
9.850381
0
LINE
8
0
10
81.894181
20
9.850381
11
81.054932
21
10.806764
0
LINE
8
0
10
81.054932
20
10.806764
11
80.257524
21
11.803538
0
LINE
8
0
10
80.257524
20
11.803538
11
79.501912
21
12.840708
0
LINE
8
0
10
79.501912
20
12.840708
11
78.788136
21
13.918268
0
LINE
8
0
10
78.788136
20
13.918268
11
78.116172
21
15.036228
0
LINE
8
0
10
78.116172
20
15.036228
11
77.486028
21
16.194578
0
LINE
8
0
10
77.486028
20
16.194578
11
76.897696
21
17.393318
0
LINE
8
0
10
76.897696
20
17.393318
11
76.351205
21
18.632448
0
LINE
8
0
10
76.351205
20
18.632448
11
75.846521
21
19.911978
0
LINE
8
0
10
75.846521
20
19.911978
11
75.383659
21
21.231898
0
LINE
8
0
10
75.383659
20
21.231898
11
74.963800
21
22.589608
0
LINE
8
0
10
74.963800
20
22.589608
11
74.588129
21
23.982478
0
LINE
8
0
10
74.588129
20
23.982478
11
74.256678
21
25.410508
0
LINE
8
0
10
74.256678
20
25.410508
11
73.969402
21
26.873718
0
LINE
8
0
10
73.969402
20
26.873718
11
73.726330
21
28.372088
0
LINE
8
0
10
73.726330
20
28.372088
11
73.527448
21
29.905628
0
LINE
8
0
10
73.527448
20
29.905628
11
73.372767
21
31.474328
0
LINE
8
0
10
73.372767
20
31.474328
11
73.262264
21
33.078198
0
LINE
8
0
10
73.262264
20
33.078198
11
73.195981
21
34.717238
0
LINE
8
0
10
73.195981
20
34.717238
11
73.173888
21
36.391438
0
LINE
8
0
10
73.173888
20
36.391438
11
73.196933
21
37.965368
0
LINE
8
0
10
73.196933
20
37.965368
11
73.266087
21
39.512678
0
LINE
8
0
10
73.266087
20
39.512678
11
73.381321
21
41.033378
0
LINE
8
0
10
73.381321
20
41.033378
11
73.542666
21
42.527468
0
LINE
8
0
10
73.542666
20
42.527468
11
73.750094
21
43.994948
0
LINE
8
0
10
73.750094
20
43.994948
11
74.003633
21
45.435818
0
LINE
8
0
10
74.003633
20
45.435818
11
74.303255
21
46.850068
0
LINE
8
0
10
74.303255
20
46.850068
11
74.648972
21
48.237708
0
LINE
8
0
10
74.648972
20
48.237708
11
75.040804
21
49.598748
0
LINE
8
0
10
75.040804
20
49.598748
11
75.478699
21
50.933158
0
LINE
8
0
10
75.478699
20
50.933158
11
75.960113
21
52.235978
0
LINE
8
0
10
75.960113
20
52.235978
11
76.482376
21
53.502198
0
LINE
8
0
10
76.482376
20
53.502198
11
77.045501
21
54.731828
0
LINE
8
0
10
77.045501
20
54.731828
11
77.649502
21
55.924888
0
LINE
8
0
10
77.649502
20
55.924888
11
78.294383
21
57.081328
0
LINE
8
0
10
78.294383
20
57.081328
11
78.980129
21
58.201198
0
LINE
8
0
10
78.980129
20
58.201198
11
79.706737
21
59.284458
0
LINE
8
0
10
79.706737
20
59.284458
11
80.474221
21
60.331128
0
LINE
8
0
10
80.474221
20
60.331128
11
81.282570
21
61.341218
0
LINE
8
0
10
81.282570
20
61.341218
11
82.131797
21
62.314704
0
LINE
8
0
10
82.131797
20
62.314704
11
83.020682
21
63.248518
0
LINE
8
0
10
83.020682
20
63.248518
11
83.948080
21
64.139554
0
LINE
8
0
10
83.948080
20
64.139554
11
84.913959
21
64.987820
0
LINE
8
0
10
84.913959
20
64.987820
11
85.918349
21
65.793314
0
LINE
8
0
10
85.918349
20
65.793314
11
86.961209
21
66.556046
0
LINE
8
0
10
86.961209
20
66.556046
11
88.042569
21
67.276003
0
LINE
8
0
10
88.042569
20
67.276003
11
89.162429
21
67.953195
0
LINE
8
0
10
89.162429
20
67.953195
11
90.320779
21
68.587607
0
LINE
8
0
10
90.320779
20
68.587607
11
91.517619
21
69.179260
0
LINE
8
0
10
91.517619
20
69.179260
11
92.752959
21
69.728140
0
LINE
8
0
10
92.752959
20
69.728140
11
94.024179
21
70.229255
0
LINE
8
0
10
94.024179
20
70.229255
11
95.328649
21
70.677625
0
LINE
8
0
10
95.328649
20
70.677625
11
96.666399
21
71.073248
0
LINE
8
0
10
96.666399
20
71.073248
11
98.037399
21
71.416118
0
LINE
8
0
10
98.037399
20
71.416118
11
99.441679
21
71.706241
0
LINE
8
0
10
99.441679
20
71.706241
11
100.879209
21
71.943614
0
LINE
8
0
10
100.879209
20
71.943614
11
102.350029
21
72.128237
0
LINE
8
0
10
102.350029
20
72.128237
11
103.854089
21
72.260110
0
LINE
8
0
10
103.854089
20
72.260110
11
105.391439
21
72.339234
0
LINE
8
0
10
105.391439
20
72.339234
11
106.962029
21
72.365613
0
LINE
8
0
10
106.962029
20
72.365613
11
108.659769
21
72.338527
0
LINE
8
0
10
108.659769
20
72.338527
11
110.312339
21
72.257258
0
LINE
8
0
10
110.312339
20
72.257258
11
111.919769
21
72.121823
0
LINE
8
0
10
111.919769
20
72.121823
11
113.482059
21
71.932210
0
LINE
8
0
10
113.482059
20
71.932210
11
114.999189
21
71.688421
0
LINE
8
0
10
114.999189
20
71.688421
11
116.471209
21
71.390456
0
LINE
8
0
10
116.471209
20
71.390456
11
117.898039
21
71.038320
0
LINE
8
0
10
117.898039
20
71.038320
11
119.279729
21
70.632010
0
LINE
8
0
10
119.279729
20
70.632010
11
120.616289
21
70.171524
0
LINE
8
0
10
120.616289
20
70.171524
11
121.907699
21
69.656860
0
LINE
8
0
10
121.907699
20
69.656860
11
123.154679
21
69.094200
0
LINE
8
0
10
123.154679
20
69.094200
11
124.357939
21
68.489715
0
LINE
8
0
10
124.357939
20
68.489715
11
125.517489
21
67.843415
0
LINE
8
0
10
125.517489
20
67.843415
11
126.633299
21
67.155298
0
LINE
8
0
10
126.633299
20
67.155298
11
127.705399
21
66.425356
0
LINE
8
0
10
127.705399
20
66.425356
11
128.733779
21
65.653607
0
LINE
8
0
10
128.733779
20
65.653607
11
129.718427
21
64.840025
0
LINE
8
0
10
129.718427
20
64.840025
11
130.659374
21
63.984633
0
LINE
8
0
10
130.659374
20
63.984633
11
131.556575
21
63.087416
0
LINE
8
0
10
131.556575
20
63.087416
11
132.410072
21
62.148377
0
LINE
8
0
10
132.410072
20
62.148377
11
133.220315
21
61.170380
0
LINE
8
0
10
133.220315
20
61.170380
11
133.987799
21
60.156250
0
LINE
8
0
10
133.987799
20
60.156250
11
134.712516
21
59.106020
0
LINE
8
0
10
134.712516
20
59.106020
11
135.394460
21
58.019660
0
LINE
8
0
10
135.394460
20
58.019660
11
136.033621
21
56.897190
0
LINE
8
0
10
136.033621
20
56.897190
11
136.630025
21
55.738610
0
LINE
8
0
10
136.630025
20
55.738610
11
137.183657
21
54.543910
0
LINE
8
0
10
137.183657
20
54.543910
11
137.694522
21
53.313090
0
LINE
8
0
10
137.694522
20
53.313090
11
138.162614
21
52.046150
0
LINE
8
0
10
138.162614
20
52.046150
11
138.587936
21
50.743110
0
LINE
8
0
10
138.587936
20
50.743110
11
138.971663
21
49.410590
0
LINE
8
0
10
138.971663
20
49.410590
11
139.315018
21
48.055260
0
LINE
8
0
10
139.315018
20
48.055260
11
139.617963
21
46.677120
0
LINE
8
0
10
139.617963
20
46.677120
11
139.880522
21
45.276170
0
LINE
8
0
10
139.880522
20
45.276170
11
140.102690
21
43.852420
0
LINE
8
0
10
140.102690
20
43.852420
11
140.284466
21
42.405840
0
LINE
8
0
10
140.284466
20
42.405840
11
140.425854
21
40.936470
0
LINE
8
0
10
140.425854
20
40.936470
11
140.526837
21
39.444280
0
LINE
8
0
10
140.526837
20
39.444280
11
140.587429
21
37.929280
0
LINE
8
0
10
140.587429
20
37.929280
11
140.607617
21
36.391470
0
LINE
8
0
10
140.607617
20
36.391470
11
140.599071
21
35.470732
0
LINE
8
0
10
140.599071
20
35.470732
11
140.573407
21
34.552367
0
LINE
8
0
10
140.573407
20
34.552367
11
140.530621
21
33.636375
0
LINE
8
0
10
140.530621
20
33.636375
11
140.470759
21
32.722773
0
LINE
8
0
10
140.470759
20
32.722773
11
140.393763
21
31.811536
0
LINE
8
0
10
140.393763
20
31.811536
11
140.299677
21
30.902678
0
LINE
8
0
10
140.299677
20
30.902678
11
140.188473
21
29.996198
0
LINE
8
0
10
140.188473
20
29.996198
11
140.060161
21
29.092094
0
LINE
8
0
10
140.060161
20
29.092094
11
139.914746
21
28.190361
0
LINE
8
0
10
139.914746
20
28.190361
11
139.752223
21
27.291009
0
LINE
8
0
10
139.752223
20
27.291009
11
139.572111
21
26.397594
0
LINE
8
0
10
139.572111
20
26.397594
11
139.373944
21
25.513683
0
LINE
8
0
10
139.373944
20
25.513683
11
139.157711
21
24.639281
0
LINE
8
0
10
139.157711
20
24.639281
11
138.923444
21
23.774378
0
LINE
8
0
10
138.923444
20
23.774378
11
138.671095
21
22.918984
0
LINE
8
0
10
138.671095
20
22.918984
11
138.400694
21
22.073091
0
LINE
8
0
10
138.400694
20
22.073091
11
138.112227
21
21.236704
0
LINE
8
0
10
138.112227
20
21.236704
11
137.805723
21
20.409824
0
LINE
8
0
10
137.805723
20
20.409824
11
137.481141
21
19.592442
0
LINE
8
0
10
137.481141
20
19.592442
11
137.138503
21
18.784567
0
LINE
8
0
10
137.138503
20
18.784567
11
136.777098
21
17.987622
0
LINE
8
0
10
136.777098
20
17.987622
11
136.396210
21
17.203036
0
LINE
8
0
10
136.396210
20
17.203036
11
135.995851
21
16.430803
0
LINE
8
0
10
135.995851
20
16.430803
11
135.575990
21
15.670926
0
LINE
8
0
10
135.575990
20
15.670926
11
135.136645
21
14.923408
0
LINE
8
0
10
135.136645
20
14.923408
11
134.677813
21
14.188240
0
LINE
8
0
10
134.677813
20
14.188240
11
134.199513
21
13.465431
0
LINE
8
0
10
134.199513
20
13.465431
11
133.701727
21
12.754981
0
LINE
8
0
10
133.701727
20
12.754981
11
133.184438
21
12.056876
0
LINE
8
0
10
133.184438
20
12.056876
11
132.647681
21
11.371135
0
LINE
8
0
10
132.647681
20
11.371135
11
132.090964
21
10.700840
0
LINE
8
0
10
132.090964
20
10.700840
11
131.513816
21
10.049074
0
LINE
8
0
10
131.513816
20
10.049074
11
130.916208
21
9.415842
0
LINE
8
0
10
130.916208
20
9.415842
11
130.298198
21
8.801147
0
LINE
8
0
10
130.298198
20
8.801147
11
129.659741
21
8.204981
0
LINE
8
0
10
129.659741
20
8.204981
11
129.000834
21
7.627354
0
LINE
8
0
10
129.000834
20
7.627354
11
128.321515
21
7.068258
0
LINE
8
0
10
128.321515
20
7.068258
11
127.621749
21
6.527691
0
LINE
8
0
10
127.621749
20
6.527691
11
126.901551
21
6.005663
0
LINE
8
0
10
126.901551
20
6.005663
11
126.160920
21
5.502169
0
LINE
8
0
10
126.160920
20
5.502169
11
125.399630
21
5.018630
0
LINE
8
0
10
125.399630
20
5.018630
11
124.617404
21
4.556480
0
LINE
8
0
10
124.617404
20
4.556480
11
123.814305
21
4.115711
0
LINE
8
0
10
123.814305
20
4.115711
11
122.990269
21
3.696331
0
LINE
8
0
10
122.990269
20
3.696331
11
122.145331
21
3.298332
0
LINE
8
0
10
122.145331
20
3.298332
11
121.279473
21
2.921722
0
LINE
8
0
10
121.279473
20
2.921722
11
120.392710
21
2.566496
0
LINE
8
0
10
120.392710
20
2.566496
11
119.485042
21
2.232653
0
LINE
8
0
10
119.485042
20
2.232653
11
118.556469
21
1.920194
0
LINE
8
0
10
118.556469
20
1.920194
11
117.606976
21
1.629124
0
LINE
8
0
10
117.606976
20
1.629124
11
116.635618
21
1.362760
0
LINE
8
0
10
116.635618
20
1.362760
11
115.641463
21
1.124440
0
LINE
8
0
10
115.641463
20
1.124440
11
114.624493
21
0.914155
0
LINE
8
0
10
114.624493
20
0.914155
11
113.584703
21
0.731908
0
LINE
8
0
10
113.584703
20
0.731908
11
112.522113
21
0.577698
0
LINE
8
0
10
112.522113
20
0.577698
11
111.436723
21
0.451529
0
LINE
8
0
10
111.436723
20
0.451529
11
110.328513
21
0.353395
0
LINE
8
0
10
110.328513
20
0.353395
11
109.197473
21
0.283299
0
LINE
8
0
10
109.197473
20
0.283299
11
108.043633
21
0.241244
0
LINE
8
0
10
108.043633
20
0.241244
11
106.867000
21
0.227173
0
LINE
8
0
10
107.722000
20
6.452560
11
108.773440
21
6.472986
0
LINE
8
0
10
108.773440
20
6.472986
11
109.798710
21
6.534287
0
LINE
8
0
10
109.798710
20
6.534287
11
110.797884
21
6.636458
0
LINE
8
0
10
110.797884
20
6.636458
11
111.770875
21
6.779502
0
LINE
8
0
10
111.770875
20
6.779502
11
112.717759
21
6.963414
0
LINE
8
0
10
112.717759
20
6.963414
11
113.638487
21
7.188190
0
LINE
8
0
10
113.638487
20
7.188190
11
114.533095
21
7.453837
0
LINE
8
0
10
114.533095
20
7.453837
11
115.401578
21
7.760356
0
LINE
8
0
10
115.401578
20
7.760356
11
116.243891
21
8.107740
0
LINE
8
0
10
116.243891
20
8.107740
11
117.060085
21
8.495994
0
LINE
8
0
10
117.060085
20
8.495994
11
117.849908
21
8.921319
0
LINE
8
0
10
117.849908
20
8.921319
11
118.613106
21
9.379905
0
LINE
8
0
10
118.613106
20
9.379905
11
119.349694
21
9.871757
0
LINE
8
0
10
119.349694
20
9.871757
11
120.059684
21
10.396875
0
LINE
8
0
10
120.059684
20
10.396875
11
120.743033
21
10.955259
0
LINE
8
0
10
120.743033
20
10.955259
11
121.399799
21
11.546906
0
LINE
8
0
10
121.399799
20
11.546906
11
122.029925
21
12.171822
0
LINE
8
0
10
122.029925
20
12.171822
11
122.633471
21
12.830001
0
LINE
8
0
10
122.633471
20
12.830001
11
123.210376
21
13.521446
0
LINE
8
0
10
123.210376
20
13.521446
11
123.760685
21
14.246160
0
LINE
8
0
10
123.760685
20
14.246160
11
124.284379
21
15.002468
0
LINE
8
0
10
124.284379
20
15.002468
11
124.781448
21
15.788721
0
LINE
8
0
10
124.781448
20
15.788721
11
125.251922
21
16.604912
0
LINE
8
0
10
125.251922
20
16.604912
11
125.695784
21
17.451043
0
LINE
8
0
10
125.695784
20
17.451043
11
126.113021
21
18.327109
0
LINE
8
0
10
126.113021
20
18.327109
11
126.503646
21
19.233113
0
LINE
8
0
10
126.503646
20
19.233113
11
126.867675
21
20.169062
0
LINE
8
0
10
126.867675
20
20.169062
11
127.205077
21
21.134943
0
LINE
8
0
10
127.205077
20
21.134943
11
127.515867
21
22.130770
0
LINE
8
0
10
127.515867
20
22.130770
11
127.800064
21
23.156530
0
LINE
8
0
10
127.800064
20
23.156530
11
128.057387
21
24.208910
0
LINE
8
0
10
128.057387
20
24.208910
11
128.287627
21
25.284570
0
LINE
8
0
10
128.287627
20
25.284570
11
128.490782
21
26.383520
0
LINE
8
0
10
128.490782
20
26.383520
11
128.666854
21
27.505760
0
LINE
8
0
10
128.666854
20
27.505760
11
128.815838
21
28.651270
0
LINE
8
0
10
128.815838
20
28.651270
11
128.937726
21
29.820080
0
LINE
8
0
10
128.937726
20
29.820080
11
129.032545
21
31.012170
0
LINE
8
0
10
129.032545
20
31.012170
11
129.100246
21
32.227550
0
LINE
8
0
10
129.100246
20
32.227550
11
129.140881
21
33.466210
0
LINE
8
0
10
129.140881
20
33.466210
11
129.154427
21
34.728160
0
LINE
8
0
10
129.154427
20
34.728160
11
129.140166
21
36.167840
0
LINE
8
0
10
129.140166
20
36.167840
11
129.097397
21
37.578530
0
LINE
8
0
10
129.097397
20
37.578530
11
129.026107
21
38.960230
0
LINE
8
0
10
129.026107
20
38.960230
11
128.926331
21
40.312950
0
LINE
8
0
10
128.926331
20
40.312950
11
128.798003
21
41.636680
0
LINE
8
0
10
128.798003
20
41.636680
11
128.641190
21
42.931410
0
LINE
8
0
10
128.641190
20
42.931410
11
128.455842
21
44.197160
0
LINE
8
0
10
128.455842
20
44.197160
11
128.242006
21
45.433910
0
LINE
8
0
10
128.242006
20
45.433910
11
127.999651
21
46.641690
0
LINE
8
0
10
127.999651
20
46.641690
11
127.728763
21
47.820480
0
LINE
8
0
10
127.728763
20
47.820480
11
127.429125
21
48.967180
0
LINE
8
0
10
127.429125
20
48.967180
11
127.100529
21
50.078720
0
LINE
8
0
10
127.100529
20
50.078720
11
126.742908
21
51.155100
0
LINE
8
0
10
126.742908
20
51.155100
11
126.356326
21
52.196300
0
LINE
8
0
10
126.356326
20
52.196300
11
125.940740
21
53.202340
0
LINE
8
0
10
125.940740
20
53.202340
11
125.496174
21
54.173225
0
LINE
8
0
10
125.496174
20
54.173225
11
125.022618
21
55.108925
0
LINE
8
0
10
125.022618
20
55.108925
11
124.520072
21
56.009468
0
LINE
8
0
10
124.520072
20
56.009468
11
123.988533
21
56.874845
0
LINE
8
0
10
123.988533
20
56.874845
11
123.428017
21
57.705051
0
LINE
8
0
10
123.428017
20
57.705051
11
122.838267
21
58.498668
0
LINE
8
0
10
122.838267
20
58.498668
11
122.219063
21
59.254275
0
LINE
8
0
10
122.219063
20
59.254275
11
121.570385
21
59.971851
0
LINE
8
0
10
121.570385
20
59.971851
11
120.892253
21
60.651417
0
LINE
8
0
10
120.892253
20
60.651417
11
120.184642
21
61.292970
0
LINE
8
0
10
120.184642
20
61.292970
11
119.447585
21
61.896494
0
LINE
8
0
10
119.447585
20
61.896494
11
118.681043
21
62.462006
0
LINE
8
0
10
118.681043
20
62.462006
11
117.885056
21
62.989500
0
LINE
8
0
10
117.885056
20
62.989500
11
117.059586
21
63.478981
0
LINE
8
0
10
117.059586
20
63.478981
11
116.204668
21
63.930434
0
LINE
8
0
10
116.204668
20
63.930434
11
115.319569
21
64.341268
0
LINE
8
0
10
115.319569
20
64.341268
11
114.403599
21
64.708845
0
LINE
8
0
10
114.403599
20
64.708845
11
113.456717
21
65.033184
0
LINE
8
0
10
113.456717
20
65.033184
11
112.478964
21
65.314282
0
LINE
8
0
10
112.478964
20
65.314282
11
111.470304
21
65.552126
0
LINE
8
0
10
111.470304
20
65.552126
11
110.430754
21
65.746729
0
LINE
8
0
10
110.430754
20
65.746729
11
109.360324
21
65.898089
0
LINE
8
0
10
109.360324
20
65.898089
11
108.259004
21
66.006206
0
LINE
8
0
10
108.259004
20
66.006206
11
107.126804
21
66.071071
0
LINE
8
0
10
107.126804
20
66.071071
11
105.963694
21
66.092688
0
LINE
8
0
10
105.963694
20
66.092688
11
104.848824
21
66.070833
0
LINE
8
0
10
104.848824
20
66.070833
11
103.766274
21
66.005251
0
LINE
8
0
10
103.766274
20
66.005251
11
102.716034
21
65.895946
0
LINE
8
0
10
102.716034
20
65.895946
11
101.698124
21
65.742930
0
LINE
8
0
10
101.698124
20
65.742930
11
100.712515
21
65.546183
0
LINE
8
0
10
100.712515
20
65.546183
11
99.759222
21
65.305727
0
LINE
8
0
10
99.759222
20
65.305727
11
98.838248
21
65.021541
0
LINE
8
0
10
98.838248
20
65.021541
11
97.949577
21
64.693646
0
LINE
8
0
10
97.949577
20
64.693646
11
97.093257
21
64.322018
0
LINE
8
0
10
97.093257
20
64.322018
11
96.269205
21
63.906676
0
LINE
8
0
10
96.269205
20
63.906676
11
95.475826
21
63.453313
0
LINE
8
0
10
95.475826
20
63.453313
11
94.711438
21
62.967642
0
LINE
8
0
10
94.711438
20
62.967642
11
93.976043
21
62.449647
0
LINE
8
0
10
93.976043
20
62.449647
11
93.269622
21
61.899354
0
LINE
8
0
10
93.269622
20
61.899354
11
92.592194
21
61.316726
0
LINE
8
0
10
92.592194
20
61.316726
11
91.943757
21
60.701798
0
LINE
8
0
10
91.943757
20
60.701798
11
91.324310
21
60.054535
0
LINE
8
0
10
91.324310
20
60.054535
11
90.733843
21
59.374980
0
LINE
8
0
10
90.733843
20
59.374980
11
90.172366
21
58.663104
0
LINE
8
0
10
90.172366
20
58.663104
11
89.639895
21
57.918903
0
LINE
8
0
10
89.639895
20
57.918903
11
89.135684
21
57.145482
0
LINE
8
0
10
89.135684
20
57.145482
11
88.659030
21
56.345923
0
LINE
8
0
10
88.659030
20
56.345923
11
88.209951
21
55.520234
0
LINE
8
0
10
88.209951
20
55.520234
11
87.788428
21
54.668398
0
LINE
8
0
10
87.788428
20
54.668398
11
87.394477
21
53.790430
0
LINE
8
0
10
87.394477
20
53.790430
11
87.028082
21
52.886318
0
LINE
8
0
10
87.028082
20
52.886318
11
86.689246
21
51.956081
0
LINE
8
0
10
86.689246
20
51.956081
11
86.377967
21
50.999701
0
LINE
8
0
10
86.377967
20
50.999701
11
86.094276
21
50.017180
0
LINE
8
0
10
86.094276
20
50.017180
11
85.838125
21
49.008530
0
LINE
8
0
10
85.838125
20
49.008530
11
85.607888
21
47.979920
0
LINE
8
0
10
85.607888
20
47.979920
11
85.401863
21
46.937520
0
LINE
8
0
10
85.401863
20
46.937520
11
85.220102
21
45.881350
0
LINE
8
0
10
85.220102
20
45.881350
11
85.062569
21
44.811390
0
LINE
8
0
10
85.062569
20
44.811390
11
84.929269
21
43.727650
0
LINE
8
0
10
84.929269
20
43.727650
11
84.820197
21
42.630130
0
LINE
8
0
10
84.820197
20
42.630130
11
84.735390
21
41.518830
0
LINE
8
0
10
84.735390
20
41.518830
11
84.674782
21
40.393750
0
LINE
8
0
10
84.674782
20
40.393750
11
84.638436
21
39.254880
0
LINE
8
0
10
84.638436
20
39.254880
11
84.626318
21
38.102240
0
LINE
8
0
10
84.626318
20
38.102240
11
84.640314
21
36.671350
0
LINE
8
0
10
84.640314
20
36.671350
11
84.682367
21
35.268020
0
LINE
8
0
10
84.682367
20
35.268020
11
84.752466
21
33.892260
0
LINE
8
0
10
84.752466
20
33.892260
11
84.850610
21
32.544060
0
LINE
8
0
10
84.850610
20
32.544060
11
84.976771
21
31.223420
0
LINE
8
0
10
84.976771
20
31.223420
11
85.130975
21
29.930340
0
LINE
8
0
10
85.130975
20
29.930340
11
85.313225
21
28.664830
0
LINE
8
0
10
85.313225
20
28.664830
11
85.523521
21
27.426880
0
LINE
8
0
10
85.523521
20
27.426880
11
85.761834
21
26.216490
0
LINE
8
0
10
85.761834
20
26.216490
11
86.028190
21
25.033670
0
LINE
8
0
10
86.028190
20
25.033670
11
86.323084
21
23.881740
0
LINE
8
0
10
86.323084
20
23.881740
11
86.646934
21
22.764020
0
LINE
8
0
10
86.646934
20
22.764020
11
86.999795
21
21.680520
0
LINE
8
0
10
86.999795
20
21.680520
11
87.381631
21
20.631240
0
LINE
8
0
10
87.381631
20
20.631240
11
87.792457
21
19.616170
0
LINE
8
0
10
87.792457
20
19.616170
11
88.232276
21
18.635318
0
LINE
8
0
10
88.232276
20
18.635318
11
88.701069
21
17.688680
0
LINE
8
0
10
88.701069
20
17.688680
11
89.198871
21
16.776258
0
LINE
8
0
10
89.198871
20
16.776258
11
89.725650
21
15.898051
0
LINE
8
0
10
89.725650
20
15.898051
11
90.281420
21
15.054058
0
LINE
8
0
10
90.281420
20
15.054058
11
90.866656
21
14.246188
0
LINE
8
0
10
90.866656
20
14.246188
11
91.481827
21
13.476328
0
LINE
8
0
10
91.481827
20
13.476328
11
92.126939
21
12.744491
0
LINE
8
0
10
92.126939
20
12.744491
11
92.801985
21
12.050667
0
LINE
8
0
10
92.801985
20
12.050667
11
93.506972
21
11.394864
0
LINE
8
0
10
93.506972
20
11.394864
11
94.241894
21
10.777079
0
LINE
8
0
10
94.241894
20
10.777079
11
95.006772
21
10.197309
0
LINE
8
0
10
95.006772
20
10.197309
11
95.801571
21
9.655559
0
LINE
8
0
10
95.801571
20
9.655559
11
96.626321
21
9.151825
0
LINE
8
0
10
96.626321
20
9.151825
11
97.480996
21
8.686111
0
LINE
8
0
10
97.480996
20
8.686111
11
98.366098
21
8.261738
0
LINE
8
0
10
98.366098
20
8.261738
11
99.282082
21
7.882035
0
LINE
8
0
10
99.282082
20
7.882035
11
100.228964
21
7.547007
0
LINE
8
0
10
100.228964
20
7.547007
11
101.206730
21
7.256648
0
LINE
8
0
10
101.206730
20
7.256648
11
102.215380
21
7.010959
0
LINE
8
0
10
102.215380
20
7.010959
11
103.254930
21
6.809939
0
LINE
8
0
10
103.254930
20
6.809939
11
104.325350
21
6.653594
0
LINE
8
0
10
104.325350
20
6.653594
11
105.426680
21
6.541919
0
LINE
8
0
10
105.426680
20
6.541919
11
106.558900
21
6.474910
0
LINE
8
0
10
106.558900
20
6.474910
11
107.722000
21
6.452560
0
LINE
8
0
10
152.440000
20
5.739730
11
160.138600
21
8.781140
0
LINE
8
0
10
160.138600
20
8.781140
11
160.278776
21
8.839592
0
LINE
8
0
10
160.278776
20
8.839592
11
160.414242
21
8.900896
0
LINE
8
0
10
160.414242
20
8.900896
11
160.544920
21
8.965052
0
LINE
8
0
10
160.544920
20
8.965052
11
160.670835
21
9.032057
0
LINE
8
0
10
160.670835
20
9.032057
11
160.792014
21
9.101915
0
LINE
8
0
10
160.792014
20
9.101915
11
160.908431
21
9.174623
0
LINE
8
0
10
160.908431
20
9.174623
11
161.020138
21
9.250180
0
LINE
8
0
10
161.020138
20
9.250180
11
161.127056
21
9.328594
0
LINE
8
0
10
161.127056
20
9.328594
11
161.229211
21
9.409855
0
LINE
8
0
10
161.229211
20
9.409855
11
161.326657
21
9.493969
0
LINE
8
0
10
161.326657
20
9.493969
11
161.416906
21
9.585687
0
LINE
8
0
10
161.416906
20
9.585687
11
161.497736
21
9.689758
0
LINE
8
0
10
161.497736
20
9.689758
11
161.569015
21
9.806190
0
LINE
8
0
10
161.569015
20
9.806190
11
161.630795
21
9.934976
0
LINE
8
0
10
161.630795
20
9.934976
11
161.683024
21
10.076115
0
LINE
8
0
10
161.683024
20
10.076115
11
161.725807
21
10.229610
0
LINE
8
0
10
161.725807
20
10.229610
11
161.759091
21
10.395461
0
LINE
8
0
10
161.759091
20
10.395461
11
161.782904
21
10.573668
0
LINE
8
0
10
161.782904
20
10.573668
11
161.797191
21
10.764231
0
LINE
8
0
10
161.797191
20
10.764231
11
161.801954
21
10.967153
0
LINE
8
0
10
161.801954
20
10.967153
11
161.802000
21
62.005800
0
LINE
8
0
10
161.802000
20
62.005800
11
161.796973
21
62.191132
0
LINE
8
0
10
161.796973
20
62.191132
11
161.781892
21
62.366958
0
LINE
8
0
10
161.781892
20
62.366958
11
161.757021
21
62.533296
0
LINE
8
0
10
161.757021
20
62.533296
11
161.722096
21
62.690117
0
LINE
8
0
10
161.722096
20
62.690117
11
161.677196
21
62.837432
0
LINE
8
0
10
161.677196
20
62.837432
11
161.622322
21
62.975251
0
LINE
8
0
10
161.622322
20
62.975251
11
161.557446
21
63.103555
0
LINE
8
0
10
161.557446
20
63.103555
11
161.482569
21
63.222366
0
LINE
8
0
10
161.482569
20
63.222366
11
161.397770
21
63.331665
0
LINE
8
0
10
161.397770
20
63.331665
11
161.302944
21
63.431458
0
LINE
8
0
10
161.302944
20
63.431458
11
161.201476
21
63.524131
0
LINE
8
0
10
161.201476
20
63.524131
11
161.096675
21
63.612038
0
LINE
8
0
10
161.096675
20
63.612038
11
160.988593
21
63.695205
0
LINE
8
0
10
160.988593
20
63.695205
11
160.877124
21
63.773619
0
LINE
8
0
10
160.877124
20
63.773619
11
160.762401
21
63.847274
0
LINE
8
0
10
160.762401
20
63.847274
11
160.644291
21
63.916182
0
LINE
8
0
10
160.644291
20
63.916182
11
160.522900
21
63.980346
0
LINE
8
0
10
160.522900
20
63.980346
11
160.398123
21
64.039747
0
LINE
8
0
10
160.398123
20
64.039747
11
160.270038
21
64.094389
0
LINE
8
0
10
160.270038
20
64.094389
11
160.138673
21
64.144287
0
LINE
8
0
10
160.138673
20
64.144287
11
152.202463
21
66.900557
0
LINE
8
0
10
152.202463
20
66.900557
11
152.203000
21
70.749800
0
LINE
8
0
10
152.203000
20
70.749800
11
172.780000
21
70.749800
0
LINE
8
0
10
172.780000
20
70.749800
11
206.235500
21
23.180300
0
LINE
8
0
10
206.235500
20
23.180300
11
209.657090
21
17.192520
0
LINE
8
0
10
209.657090
20
17.192520
11
210.655000
21
17.192500
0
LINE
8
0
10
210.655000
20
17.192500
11
210.655000
21
61.768200
0
LINE
8
0
10
210.655000
20
61.768200
11
210.649444
21
61.952823
0
LINE
8
0
10
210.649444
20
61.952823
11
210.633040
21
62.126514
0
LINE
8
0
10
210.633040
20
62.126514
11
210.605682
21
62.289270
0
LINE
8
0
10
210.605682
20
62.289270
11
210.567450
21
62.441112
0
LINE
8
0
10
210.567450
20
62.441112
11
210.518290
21
62.582010
0
LINE
8
0
10
210.518290
20
62.582010
11
210.458124
21
62.711986
0
LINE
8
0
10
210.458124
20
62.711986
11
210.387110
21
62.831025
0
LINE
8
0
10
210.387110
20
62.831025
11
210.305142
21
62.939142
0
LINE
8
0
10
210.305142
20
62.939142
11
210.212220
21
63.036326
0
LINE
8
0
10
210.212220
20
63.036326
11
210.108371
21
63.122577
0
LINE
8
0
10
210.108371
20
63.122577
11
209.997908
21
63.202175
0
LINE
8
0
10
209.997908
20
63.202175
11
209.885010
21
63.279398
0
LINE
8
0
10
209.885010
20
63.279398
11
209.769811
21
63.354241
0
LINE
8
0
10
209.769811
20
63.354241
11
209.652177
21
63.426721
0
LINE
8
0
10
209.652177
20
63.426721
11
209.532189
21
63.496814
0
LINE
8
0
10
209.532189
20
63.496814
11
209.409793
21
63.564532
0
LINE
8
0
10
209.409793
20
63.564532
11
209.285069
21
63.629876
0
LINE
8
0
10
209.285069
20
63.629876
11
209.157937
21
63.692836
0
LINE
8
0
10
209.157937
20
63.692836
11
209.028450
21
63.753428
0
LINE
8
0
10
209.028450
20
63.753428
11
208.896582
21
63.811639
0
LINE
8
0
10
208.896582
20
63.811639
11
201.293052
21
66.900569
0
LINE
8
0
10
201.293052
20
66.900569
11
201.293000
21
70.749800
0
LINE
8
0
10
201.293000
20
70.749800
11
227.050000
21
70.749800
0
LINE
8
0
10
227.050000
20
70.749800
11
227.050000
21
66.900500
0
LINE
8
0
10
227.050000
20
66.900500
11
219.398950
21
63.811570
0
LINE
8
0
10
219.398950
20
63.811570
11
219.284888
21
63.762148
0
LINE
8
0
10
219.284888
20
63.762148
11
219.170879
21
63.708925
0
LINE
8
0
10
219.170879
20
63.708925
11
219.056791
21
63.651902
0
LINE
8
0
10
219.056791
20
63.651902
11
218.942729
21
63.591074
0
LINE
8
0
10
218.942729
20
63.591074
11
218.828667
21
63.526445
0
LINE
8
0
10
218.828667
20
63.526445
11
218.714632
21
63.458010
0
LINE
8
0
10
218.714632
20
63.458010
11
218.600597
21
63.385774
0
LINE
8
0
10
218.600597
20
63.385774
11
218.486509
21
63.309746
0
LINE
8
0
10
218.486509
20
63.309746
11
218.372474
21
63.229905
0
LINE
8
0
10
218.372474
20
63.229905
11
218.258386
21
63.146273
0
LINE
8
0
10
218.258386
20
63.146273
11
218.150066
21
63.055498
0
LINE
8
0
10
218.150066
20
63.055498
11
218.053096
21
62.954271
0
LINE
8
0
10
218.053096
20
62.954271
11
217.967557
21
62.842601
0
LINE
8
0
10
217.967557
20
62.842601
11
217.893473
21
62.720477
0
LINE
8
0
10
217.893473
20
62.720477
11
217.830714
21
62.587887
0
LINE
8
0
10
217.830714
20
62.587887
11
217.779385
21
62.444843
0
LINE
8
0
10
217.779385
20
62.444843
11
217.739486
21
62.291348
0
LINE
8
0
10
217.739486
20
62.291348
11
217.710964
21
62.127399
0
LINE
8
0
10
217.710964
20
62.127399
11
217.693766
21
61.952991
0
LINE
8
0
10
217.693766
20
61.952991
11
217.687945
21
61.768132
0
LINE
8
0
10
217.687945
20
61.768132
11
217.688000
21
12.250200
0
LINE
8
0
10
217.688000
20
12.250200
11
216.214830
21
1.320100
0
LINE
8
0
10
216.214830
20
1.320100
11
209.656000
21
1.320180
0
LINE
8
0
10
209.656000
20
1.320180
11
173.254200
21
52.881580
0
LINE
8
0
10
173.254200
20
52.881580
11
169.975170
21
58.821830
0
LINE
8
0
10
169.975170
20
58.821830
11
168.978000
21
58.821800
0
LINE
8
0
10
168.978000
20
58.821800
11
168.978000
21
10.967100
0
LINE
8
0
10
168.978000
20
10.967100
11
168.983556
21
10.763940
0
LINE
8
0
10
168.983556
20
10.763940
11
168.999960
21
10.572665
0
LINE
8
0
10
168.999960
20
10.572665
11
169.027292
21
10.393272
0
LINE
8
0
10
169.027292
20
10.393272
11
169.065524
21
10.225751
0
LINE
8
0
10
169.065524
20
10.225751
11
169.114710
21
10.070121
0
LINE
8
0
10
169.114710
20
10.070121
11
169.174850
21
9.926368
0
LINE
8
0
10
169.174850
20
9.926368
11
169.245890
21
9.794495
0
LINE
8
0
10
169.245890
20
9.794495
11
169.327858
21
9.674499
0
LINE
8
0
10
169.327858
20
9.674499
11
169.420753
21
9.566388
0
LINE
8
0
10
169.420753
20
9.566388
11
169.524602
21
9.470154
0
LINE
8
0
10
169.524602
20
9.470154
11
169.634139
21
9.382005
0
LINE
8
0
10
169.634139
20
9.382005
11
169.744179
21
9.298127
0
LINE
8
0
10
169.744179
20
9.298127
11
169.854642
21
9.218525
0
LINE
8
0
10
169.854642
20
9.218525
11
169.965608
21
9.143206
0
LINE
8
0
10
169.965608
20
9.143206
11
170.077050
21
9.072160
0
LINE
8
0
10
170.077050
20
9.072160
11
170.188942
21
9.005393
0
LINE
8
0
10
170.188942
20
9.005393
11
170.301363
21
8.942898
0
LINE
8
0
10
170.301363
20
8.942898
11
170.414208
21
8.884685
0
LINE
8
0
10
170.414208
20
8.884685
11
170.527555
21
8.830747
0
LINE
8
0
10
170.527555
20
8.830747
11
170.641379
21
8.781087
0
LINE
8
0
10
170.641379
20
8.781087
11
178.197339
21
5.739677
0
LINE
8
0
10
178.197339
20
5.739677
11
178.197000
21
1.795400
0
LINE
8
0
10
178.197000
20
1.795400
11
152.440000
21
1.795400
0
LINE
8
0
10
152.440000
20
1.795400
11
152.440000
21
5.739730
0
LINE
8
0
10
238.455000
20
5.739730
11
246.153570
21
8.400960
0
LINE
8
0
10
246.153570
20
8.400960
11
246.284935
21
8.451096
0
LINE
8
0
10
246.284935
20
8.451096
11
246.413020
21
8.506457
0
LINE
8
0
10
246.413020
20
8.506457
11
246.537771
21
8.567047
0
LINE
8
0
10
246.537771
20
8.567047
11
246.659215
21
8.632864
0
LINE
8
0
10
246.659215
20
8.632864
11
246.777272
21
8.703910
0
LINE
8
0
10
246.777272
20
8.703910
11
246.892048
21
8.780184
0
LINE
8
0
10
246.892048
20
8.780184
11
247.003464
21
8.861681
0
LINE
8
0
10
247.003464
20
8.861681
11
247.111599
21
8.948414
0
LINE
8
0
10
247.111599
20
8.948414
11
247.216400
21
9.040367
0
LINE
8
0
10
247.216400
20
9.040367
11
247.317841
21
9.137549
0
LINE
8
0
10
247.317841
20
9.137549
11
247.412667
21
9.242808
0
LINE
8
0
10
247.412667
20
9.242808
11
247.497466
21
9.359000
0
LINE
8
0
10
247.497466
20
9.359000
11
247.572317
21
9.486124
0
LINE
8
0
10
247.572317
20
9.486124
11
247.637193
21
9.624175
0
LINE
8
0
10
247.637193
20
9.624175
11
247.692094
21
9.773156
0
LINE
8
0
10
247.692094
20
9.773156
11
247.736967
21
9.933067
0
LINE
8
0
10
247.736967
20
9.933067
11
247.771945
21
10.103908
0
LINE
8
0
10
247.771945
20
10.103908
11
247.796816
21
10.285678
0
LINE
8
0
10
247.796816
20
10.285678
11
247.811897
21
10.478382
0
LINE
8
0
10
247.811897
20
10.478382
11
247.816924
21
10.682013
0
LINE
8
0
10
247.816924
20
10.682013
11
247.817000
21
62.005800
0
LINE
8
0
10
247.817000
20
62.005800
11
247.811973
21
62.191132
0
LINE
8
0
10
247.811973
20
62.191132
11
247.796892
21
62.366958
0
LINE
8
0
10
247.796892
20
62.366958
11
247.772021
21
62.533296
0
LINE
8
0
10
247.772021
20
62.533296
11
247.737043
21
62.690117
0
LINE
8
0
10
247.737043
20
62.690117
11
247.692170
21
62.837432
0
LINE
8
0
10
247.692170
20
62.837432
11
247.637269
21
62.975251
0
LINE
8
0
10
247.637269
20
62.975251
11
247.572393
21
63.103555
0
LINE
8
0
10
247.572393
20
63.103555
11
247.497542
21
63.222366
0
LINE
8
0
10
247.497542
20
63.222366
11
247.412744
21
63.331665
0
LINE
8
0
10
247.412744
20
63.331665
11
247.317917
21
63.431458
0
LINE
8
0
10
247.317917
20
63.431458
11
247.216476
21
63.524131
0
LINE
8
0
10
247.216476
20
63.524131
11
247.111675
21
63.612038
0
LINE
8
0
10
247.111675
20
63.612038
11
247.003540
21
63.695205
0
LINE
8
0
10
247.003540
20
63.695205
11
246.892124
21
63.773619
0
LINE
8
0
10
246.892124
20
63.773619
11
246.777348
21
63.847274
0
LINE
8
0
10
246.777348
20
63.847274
11
246.659291
21
63.916182
0
LINE
8
0
10
246.659291
20
63.916182
11
246.537847
21
63.980346
0
LINE
8
0
10
246.537847
20
63.980346
11
246.413096
21
64.039747
0
LINE
8
0
10
246.413096
20
64.039747
11
246.285011
21
64.094389
0
LINE
8
0
10
246.285011
20
64.094389
11
246.153646
21
64.144287
0
LINE
8
0
10
246.153646
20
64.144287
11
238.455076
21
66.900557
0
LINE
8
0
10
238.455076
20
66.900557
11
238.455000
21
70.749800
0
LINE
8
0
10
238.455000
20
70.749800
11
270.818000
21
70.749800
0
LINE
8
0
10
270.818000
20
70.749800
11
271.516102
21
70.743397
0
LINE
8
0
10
271.516102
20
70.743397
11
272.222750
21
70.724162
0
LINE
8
0
10
272.222750
20
70.724162
11
272.937971
21
70.692081
0
LINE
8
0
10
272.937971
20
70.692081
11
273.661711
21
70.647181
0
LINE
8
0
10
273.661711
20
70.647181
11
274.394050
21
70.589434
0
LINE
8
0
10
274.394050
20
70.589434
11
275.134882
21
70.518864
0
LINE
8
0
10
275.134882
20
70.518864
11
275.884313
21
70.435459
0
LINE
8
0
10
275.884313
20
70.435459
11
276.642317
21
70.339228
0
LINE
8
0
10
276.642317
20
70.339228
11
277.408840
21
70.230175
0
LINE
8
0
10
277.408840
20
70.230175
11
278.183936
21
70.108271
0
LINE
8
0
10
278.183936
20
70.108271
11
278.963054
21
69.970698
0
LINE
8
0
10
278.963054
20
69.970698
11
279.741695
21
69.814586
0
LINE
8
0
10
279.741695
20
69.814586
11
280.519860
21
69.639943
0
LINE
8
0
10
280.519860
20
69.639943
11
281.297575
21
69.446766
0
LINE
8
0
10
281.297575
20
69.446766
11
282.074788
21
69.235060
0
LINE
8
0
10
282.074788
20
69.235060
11
282.851524
21
69.004812
0
LINE
8
0
10
282.851524
20
69.004812
11
283.627811
21
68.756040
0
LINE
8
0
10
283.627811
20
68.756040
11
284.403595
21
68.488729
0
LINE
8
0
10
284.403595
20
68.488729
11
285.178903
21
68.202879
0
LINE
8
0
10
285.178903
20
68.202879
11
285.953761
21
67.898505
0
LINE
8
0
10
285.953761
20
67.898505
11
286.725047
21
67.574872
0
LINE
8
0
10
286.725047
20
67.574872
11
287.489665
21
67.231292
0
LINE
8
0
10
287.489665
20
67.231292
11
288.247669
21
66.867750
0
LINE
8
0
10
288.247669
20
66.867750
11
288.998979
21
66.484245
0
LINE
8
0
10
288.998979
20
66.484245
11
289.743648
21
66.080780
0
LINE
8
0
10
289.743648
20
66.080780
11
290.481676
21
65.657365
0
LINE
8
0
10
290.481676
20
65.657365
11
291.213036
21
65.213982
0
LINE
8
0
10
291.213036
20
65.213982
11
291.937729
21
64.750642
0
LINE
8
0
10
291.937729
20
64.750642
11
292.655807
21
64.267344
0
LINE
8
0
10
292.655807
20
64.267344
11
293.367191
21
63.764086
0
LINE
8
0
10
293.367191
20
63.764086
11
294.066722
21
63.237783
0
LINE
8
0
10
294.066722
20
63.237783
11
294.749161
21
62.685339
0
LINE
8
0
10
294.749161
20
62.685339
11
295.414428
21
62.106757
0
LINE
8
0
10
295.414428
20
62.106757
11
296.062630
21
61.502037
0
LINE
8
0
10
296.062630
20
61.502037
11
296.693740
21
60.871186
0
LINE
8
0
10
296.693740
20
60.871186
11
297.307705
21
60.214195
0
LINE
8
0
10
297.307705
20
60.214195
11
297.904604
21
59.531060
0
LINE
8
0
10
297.904604
20
59.531060
11
298.484358
21
58.821803
0
LINE
8
0
10
298.484358
20
58.821803
11
299.047020
21
58.086389
0
LINE
8
0
10
299.047020
20
58.086389
11
299.592590
21
57.324856
0
LINE
8
0
10
299.592590
20
57.324856
11
300.118899
21
56.536229
0
LINE
8
0
10
300.118899
20
56.536229
11
300.623803
21
55.719564
0
LINE
8
0
10
300.623803
20
55.719564
11
301.107328
21
54.874854
0
LINE
8
0
10
301.107328
20
54.874854
11
301.569502
21
54.002114
0
LINE
8
0
10
301.569502
20
54.002114
11
302.010244
21
53.101336
0
LINE
8
0
10
302.010244
20
53.101336
11
302.429661
21
52.172520
0
LINE
8
0
10
302.429661
20
52.172520
11
302.827673
21
51.215671
0
LINE
8
0
10
302.827673
20
51.215671
11
303.204254
21
50.230763
0
LINE
8
0
10
303.204254
20
50.230763
11
303.559483
21
49.217843
0
LINE
8
0
10
303.559483
20
49.217843
11
303.893334
21
48.176873
0
LINE
8
0
10
303.893334
20
48.176873
11
304.200303
21
47.105253
0
LINE
8
0
10
304.200303
20
47.105253
11
304.474993
21
46.000363
0
LINE
8
0
10
304.474993
20
46.000363
11
304.717351
21
44.862213
0
LINE
8
0
10
304.717351
20
44.862213
11
304.927403
21
43.690793
0
LINE
8
0
10
304.927403
20
43.690793
11
305.105123
21
42.486113
0
LINE
8
0
10
305.105123
20
42.486113
11
305.250538
21
41.248163
0
LINE
8
0
10
305.250538
20
41.248163
11
305.363647
21
39.976943
0
LINE
8
0
10
305.363647
20
39.976943
11
305.444451
21
38.672453
0
LINE
8
0
10
305.444451
20
38.672453
11
305.492922
21
37.334723
0
LINE
8
0
10
305.492922
20
37.334723
11
305.509062
21
35.963713
0
LINE
8
0
10
305.509062
20
35.963713
11
305.481757
21
34.219883
0
LINE
8
0
10
305.481757
20
34.219883
11
305.399763
21
32.524073
0
LINE
8
0
10
305.399763
20
32.524073
11
305.263159
21
30.876243
0
LINE
8
0
10
305.263159
20
30.876243
11
305.071865
21
29.276403
0
LINE
8
0
10
305.071865
20
29.276403
11
304.825962
21
27.724573
0
LINE
8
0
10
304.825962
20
27.724573
11
304.525369
21
26.220743
0
LINE
8
0
10
304.525369
20
26.220743
11
304.170166
21
24.764903
0
LINE
8
0
10
304.170166
20
24.764903
11
303.760274
21
23.357063
0
LINE
8
0
10
303.760274
20
23.357063
11
303.295719
21
21.997223
0
LINE
8
0
10
303.295719
20
21.997223
11
302.776554
21
20.685383
0
LINE
8
0
10
302.776554
20
20.685383
11
302.210108
21
19.419873
0
LINE
8
0
10
302.210108
20
19.419873
11
301.603710
21
18.199033
0
LINE
8
0
10
301.603710
20
18.199033
11
300.957387
21
17.022863
0
LINE
8
0
10
300.957387
20
17.022863
11
300.271217
21
15.891363
0
LINE
8
0
10
300.271217
20
15.891363
11
299.545042
21
14.804533
0
LINE
8
0
10
299.545042
20
14.804533
11
298.778995
21
13.762373
0
LINE
8
0
10
298.778995
20
13.762373
11
297.973022
21
12.764885
0
LINE
8
0
10
297.973022
20
12.764885
11
297.127150
21
11.812071
0
LINE
8
0
10
297.127150
20
11.812071
11
296.241326
21
10.903924
0
LINE
8
0
10
296.241326
20
10.903924
11
295.315577
21
10.040449
0
LINE
8
0
10
295.315577
20
10.040449
11
294.353738
21
9.221168
0
LINE
8
0
10
294.353738
20
9.221168
11
293.359594
21
8.445612
0
LINE
8
0
10
293.359594
20
8.445612
11
292.333144
21
7.713775
0
LINE
8
0
10
292.333144
20
7.713775
11
291.274334
21
7.025653
0
LINE
8
0
10
291.274334
20
7.025653
11
290.183194
21
6.381256
0
LINE
8
0
10
290.183194
20
6.381256
11
289.059804
21
5.780576
0
LINE
8
0
10
289.059804
20
5.780576
11
287.904074
21
5.223618
0
LINE
8
0
10
287.904074
20
5.223618
11
286.716014
21
4.710383
0
LINE
8
0
10
286.716014
20
4.710383
11
285.495654
21
4.240862
0
LINE
8
0
10
285.495654
20
4.240862
11
284.242964
21
3.815066
0
LINE
8
0
10
284.242964
20
3.815066
11
282.964874
21
3.431328
0
LINE
8
0
10
282.964874
20
3.431328
11
281.668234
21
3.087979
0
LINE
8
0
10
281.668234
20
3.087979
11
280.353074
21
2.785029
0
LINE
8
0
10
280.353074
20
2.785029
11
279.019364
21
2.522470
0
LINE
8
0
10
279.019364
20
2.522470
11
277.667134
21
2.300302
0
LINE
8
0
10
277.667134
20
2.300302
11
276.296354
21
2.118533
0
LINE
8
0
10
276.296354
20
2.118533
11
274.907054
21
1.977150
0
LINE
8
0
10
274.907054
20
1.977150
11
273.499184
21
1.876169
0
LINE
8
0
10
273.499184
20
1.876169
11
272.072813
21
1.815577
0
LINE
8
0
10
272.072813
20
1.815577
11
270.627904
21
1.795389
0
LINE
8
0
10
270.627904
20
1.795389
11
238.455000
21
1.795430
0
LINE
8
0
10
238.455000
20
1.795430
11
238.455000
21
5.739730
0
LINE
8
0
10
270.723000
20
8.163350
11
271.913680
21
8.180918
0
LINE
8
0
10
271.913680
20
8.180918
11
273.071550
21
8.233668
0
LINE
8
0
10
273.071550
20
8.233668
11
274.196610
21
8.321587
0
LINE
8
0
10
274.196610
20
8.321587
11
275.288940
21
8.444668
0
LINE
8
0
10
275.288940
20
8.444668
11
276.348440
21
8.602915
0
LINE
8
0
10
276.348440
20
8.602915
11
277.375130
21
8.796328
0
LINE
8
0
10
277.375130
20
8.796328
11
278.369062
21
9.024909
0
LINE
8
0
10
278.369062
20
9.024909
11
279.330213
21
9.288656
0
LINE
8
0
10
279.330213
20
9.288656
11
280.258555
21
9.587570
0
LINE
8
0
10
280.258555
20
9.587570
11
281.154089
21
9.921648
0
LINE
8
0
10
281.154089
20
9.921648
11
282.017794
21
10.289471
0
LINE
8
0
10
282.017794
20
10.289471
11
282.850622
21
10.689605
0
LINE
8
0
10
282.850622
20
10.689605
11
283.652573
21
11.122053
0
LINE
8
0
10
283.652573
20
11.122053
11
284.423594
21
11.586820
0
LINE
8
0
10
284.423594
20
11.586820
11
285.163765
21
12.083900
0
LINE
8
0
10
285.163765
20
12.083900
11
285.873033
21
12.613296
0
LINE
8
0
10
285.873033
20
12.613296
11
286.551424
21
13.175006
0
LINE
8
0
10
286.551424
20
13.175006
11
287.198885
21
13.769032
0
LINE
8
0
10
287.198885
20
13.769032
11
287.815496
21
14.395369
0
LINE
8
0
10
287.815496
20
14.395369
11
288.401203
21
15.054025
0
LINE
8
0
10
288.401203
20
15.054025
11
288.956483
21
15.744282
0
LINE
8
0
10
288.956483
20
15.744282
11
289.481839
21
16.465432
0
LINE
8
0
10
289.481839
20
16.465432
11
289.977271
21
17.217464
0
LINE
8
0
10
289.977271
20
17.217464
11
290.442752
21
18.000391
0
LINE
8
0
10
290.442752
20
18.000391
11
290.878309
21
18.814201
0
LINE
8
0
10
290.878309
20
18.814201
11
291.283915
21
19.658910
0
LINE
8
0
10
291.283915
20
19.658910
11
291.659543
21
20.534499
0
LINE
8
0
10
291.659543
20
20.534499
11
292.005247
21
21.440984
0
LINE
8
0
10
292.005247
20
21.440984
11
292.321053
21
22.378357
0
LINE
8
0
10
292.321053
20
22.378357
11
292.606908
21
23.346615
0
LINE
8
0
10
292.606908
20
23.346615
11
292.864215
21
24.343868
0
LINE
8
0
10
292.864215
20
24.343868
11
293.094455
21
25.368208
0
LINE
8
0
10
293.094455
20
25.368208
11
293.297628
21
26.419628
0
LINE
8
0
10
293.297628
20
26.419628
11
293.473734
21
27.498138
0
LINE
8
0
10
293.473734
20
27.498138
11
293.622668
21
28.603748
0
LINE
8
0
10
293.622668
20
28.603748
11
293.744561
21
29.736428
0
LINE
8
0
10
293.744561
20
29.736428
11
293.839387
21
30.896208
0
LINE
8
0
10
293.839387
20
30.896208
11
293.907094
21
32.083068
0
LINE
8
0
10
293.907094
20
32.083068
11
293.947734
21
33.297018
0
LINE
8
0
10
293.947734
20
33.297018
11
293.961228
21
34.538048
0
LINE
8
0
10
293.961228
20
34.538048
11
293.942707
21
35.902648
0
LINE
8
0
10
293.942707
20
35.902648
11
293.887118
21
37.240158
0
LINE
8
0
10
293.887118
20
37.240158
11
293.794461
21
38.550578
0
LINE
8
0
10
293.794461
20
38.550578
11
293.664709
21
39.833918
0
LINE
8
0
10
293.664709
20
39.833918
11
293.497889
21
41.090158
0
LINE
8
0
10
293.497889
20
41.090158
11
293.294028
21
42.319318
0
LINE
8
0
10
293.294028
20
42.319318
11
293.053072
21
43.521388
0
LINE
8
0
10
293.053072
20
43.521388
11
292.775075
21
44.696378
0
LINE
8
0
10
292.775075
20
44.696378
11
292.460036
21
45.844268
0
LINE
8
0
10
292.460036
20
45.844268
11
292.107876
21
46.965078
0
LINE
8
0
10
292.107876
20
46.965078
11
291.721532
21
48.055708
0
LINE
8
0
10
291.721532
20
48.055708
11
291.303808
21
49.113068
0
LINE
8
0
10
291.303808
20
49.113068
11
290.854731
21
50.137168
0
LINE
8
0
10
290.854731
20
50.137168
11
290.374275
21
51.127994
0
LINE
8
0
10
290.374275
20
51.127994
11
289.862466
21
52.085574
0
LINE
8
0
10
289.862466
20
52.085574
11
289.319304
21
53.009875
0
LINE
8
0
10
289.319304
20
53.009875
11
288.744762
21
53.900911
0
LINE
8
0
10
288.744762
20
53.900911
11
288.138867
21
54.758684
0
LINE
8
0
10
288.138867
20
54.758684
11
287.501592
21
55.583191
0
LINE
8
0
10
287.501592
20
55.583191
11
286.832964
21
56.374434
0
LINE
8
0
10
286.832964
20
56.374434
11
286.134359
21
57.130980
0
LINE
8
0
10
286.134359
20
57.130980
11
285.407311
21
57.851413
0
LINE
8
0
10
285.407311
20
57.851413
11
284.651688
21
58.535733
0
LINE
8
0
10
284.651688
20
58.535733
11
283.867570
21
59.183931
0
LINE
8
0
10
283.867570
20
59.183931
11
283.054956
21
59.796013
0
LINE
8
0
10
283.054956
20
59.796013
11
282.213794
21
60.371977
0
LINE
8
0
10
282.213794
20
60.371977
11
281.344163
21
60.911825
0
LINE
8
0
10
281.344163
20
60.911825
11
280.446010
21
61.415565
0
LINE
8
0
10
280.446010
20
61.415565
11
279.519308
21
61.883184
0
LINE
8
0
10
279.519308
20
61.883184
11
278.564110
21
62.314678
0
LINE
8
0
10
278.564110
20
62.314678
11
277.583248
21
62.707446
0
LINE
8
0
10
277.583248
20
62.707446
11
276.579608
21
63.058870
0
LINE
8
0
10
276.579608
20
63.058870
11
275.553128
21
63.368953
0
LINE
8
0
10
275.553128
20
63.368953
11
274.503848
21
63.637690
0
LINE
8
0
10
274.503848
20
63.637690
11
273.431728
21
63.865083
0
LINE
8
0
10
273.431728
20
63.865083
11
272.336828
21
64.051132
0
LINE
8
0
10
272.336828
20
64.051132
11
271.219128
21
64.195832
0
LINE
8
0
10
271.219128
20
64.195832
11
270.078588
21
64.299194
0
LINE
8
0
10
270.078588
20
64.299194
11
268.915248
21
64.361221
0
LINE
8
0
10
268.915248
20
64.361221
11
267.729098
21
64.381885
0
LINE
8
0
10
267.729098
20
64.381885
11
258.224000
21
64.381900
0
LINE
8
0
10
258.224000
20
64.381900
11
258.224000
21
8.163340
0
LINE
8
0
10
258.224000
20
8.163340
11
270.723000
21
8.163350
0
LINE
8
0
10
325.278000
20
62.005800
11
325.272973
21
62.190897
0
LINE
8
0
10
325.272973
20
62.190897
11
325.257892
21
62.366014
0
LINE
8
0
10
325.257892
20
62.366014
11
325.233021
21
62.531151
0
LINE
8
0
10
325.233021
20
62.531151
11
325.198070
21
62.686318
0
LINE
8
0
10
325.198070
20
62.686318
11
325.153170
21
62.831497
0
LINE
8
0
10
325.153170
20
62.831497
11
325.098295
21
62.966691
0
LINE
8
0
10
325.098295
20
62.966691
11
325.033420
21
63.091910
0
LINE
8
0
10
325.033420
20
63.091910
11
324.958569
21
63.207154
0
LINE
8
0
10
324.958569
20
63.207154
11
324.873744
21
63.312416
0
LINE
8
0
10
324.873744
20
63.312416
11
324.778917
21
63.407698
0
LINE
8
0
10
324.778917
20
63.407698
11
324.676047
21
63.496322
0
LINE
8
0
10
324.676047
20
63.496322
11
324.566986
21
63.581619
0
LINE
8
0
10
324.566986
20
63.581619
11
324.451760
21
63.663602
0
LINE
8
0
10
324.451760
20
63.663602
11
324.330316
21
63.742255
0
LINE
8
0
10
324.330316
20
63.742255
11
324.202734
21
63.817579
0
LINE
8
0
10
324.202734
20
63.817579
11
324.068961
21
63.889572
0
LINE
8
0
10
324.068961
20
63.889572
11
323.929023
21
63.958234
0
LINE
8
0
10
323.929023
20
63.958234
11
323.782867
21
64.023581
0
LINE
8
0
10
323.782867
20
64.023581
11
323.630547
21
64.085599
0
LINE
8
0
10
323.630547
20
64.085599
11
323.472088
21
64.144286
0
LINE
8
0
10
323.472088
20
64.144286
11
315.916078
21
66.900556
0
LINE
8
0
10
315.916078
20
66.900556
11
315.916000
21
70.749800
0
LINE
8
0
10
315.916000
20
70.749800
11
345.047000
21
70.749800
0
LINE
8
0
10
345.047000
20
70.749800
11
345.047000
21
66.900500
0
LINE
8
0
10
345.047000
20
66.900500
11
337.395970
21
64.144230
0
LINE
8
0
10
337.395970
20
64.144230
11
337.264578
21
64.094332
0
LINE
8
0
10
337.264578
20
64.094332
11
337.136493
21
64.039691
0
LINE
8
0
10
337.136493
20
64.039691
11
337.011769
21
63.980273
0
LINE
8
0
10
337.011769
20
63.980273
11
336.890325
21
63.916125
0
LINE
8
0
10
336.890325
20
63.916125
11
336.772215
21
63.847217
0
LINE
8
0
10
336.772215
20
63.847217
11
336.657492
21
63.773562
0
LINE
8
0
10
336.657492
20
63.773562
11
336.546023
21
63.695148
0
LINE
8
0
10
336.546023
20
63.695148
11
336.437914
21
63.611990
0
LINE
8
0
10
336.437914
20
63.611990
11
336.333113
21
63.524074
0
LINE
8
0
10
336.333113
20
63.524074
11
336.231672
21
63.431401
0
LINE
8
0
10
336.231672
20
63.431401
11
336.136845
21
63.331608
0
LINE
8
0
10
336.136845
20
63.331608
11
336.052047
21
63.222309
0
LINE
8
0
10
336.052047
20
63.222309
11
335.977196
21
63.103498
0
LINE
8
0
10
335.977196
20
63.103498
11
335.912347
21
62.975194
0
LINE
8
0
10
335.912347
20
62.975194
11
335.857446
21
62.837375
0
LINE
8
0
10
335.857446
20
62.837375
11
335.812546
21
62.690060
0
LINE
8
0
10
335.812546
20
62.690060
11
335.777595
21
62.533239
0
LINE
8
0
10
335.777595
20
62.533239
11
335.752724
21
62.366901
0
LINE
8
0
10
335.752724
20
62.366901
11
335.737643
21
62.191075
0
LINE
8
0
10
335.737643
20
62.191075
11
335.732616
21
62.005743
0
LINE
8
0
10
335.732616
20
62.005743
11
335.732000
21
25.984100
0
LINE
8
0
10
335.732000
20
25.984100
11
335.734646
21
25.629350
0
LINE
8
0
10
335.734646
20
25.629350
11
335.742583
21
25.268422
0
LINE
8
0
10
335.742583
20
25.268422
11
335.755812
21
24.901316
0
LINE
8
0
10
335.755812
20
24.901316
11
335.774069
21
24.528032
0
LINE
8
0
10
335.774069
20
24.528032
11
335.797617
21
24.148567
0
LINE
8
0
10
335.797617
20
24.148567
11
335.826377
21
23.762929
0
LINE
8
0
10
335.826377
20
23.762929
11
335.860323
21
23.371105
0
LINE
8
0
10
335.860323
20
23.371105
11
335.899534
21
22.973111
0
LINE
8
0
10
335.899534
20
22.973111
11
335.943984
21
22.568937
0
LINE
8
0
10
335.943984
20
22.568937
11
335.993620
21
22.158582
0
LINE
8
0
10
335.993620
20
22.158582
11
336.050187
21
21.745616
0
LINE
8
0
10
336.050187
20
21.745616
11
336.115301
21
21.333602
0
LINE
8
0
10
336.115301
20
21.333602
11
336.188935
21
20.922535
0
LINE
8
0
10
336.188935
20
20.922535
11
336.271167
21
20.512421
0
LINE
8
0
10
336.271167
20
20.512421
11
336.361919
21
20.103257
0
LINE
8
0
10
336.361919
20
20.103257
11
336.461244
21
19.695040
0
LINE
8
0
10
336.461244
20
19.695040
11
336.569141
21
19.287781
0
LINE
8
0
10
336.569141
20
19.287781
11
336.685558
21
18.881466
0
LINE
8
0
10
336.685558
20
18.881466
11
336.810521
21
18.476101
0
LINE
8
0
10
336.810521
20
18.476101
11
336.944082
21
18.071691
0
LINE
8
0
10
336.944082
20
18.071691
11
337.087354
21
17.669178
0
LINE
8
0
10
337.087354
20
17.669178
11
337.241553
21
17.269520
0
LINE
8
0
10
337.241553
20
17.269520
11
337.406679
21
16.872709
0
LINE
8
0
10
337.406679
20
16.872709
11
337.582785
21
16.478750
0
LINE
8
0
10
337.582785
20
16.478750
11
337.769792
21
16.087646
0
LINE
8
0
10
337.769792
20
16.087646
11
337.967700
21
15.699394
0
LINE
8
0
10
337.967700
20
15.699394
11
338.176562
21
15.313987
0
LINE
8
0
10
338.176562
20
15.313987
11
338.396351
21
14.931434
0
LINE
8
0
10
338.396351
20
14.931434
11
338.627094
21
14.551736
0
LINE
8
0
10
338.627094
20
14.551736
11
338.868711
21
14.174885
0
LINE
8
0
10
338.868711
20
14.174885
11
339.122949
21
13.803739
0
LINE
8
0
10
339.122949
20
13.803739
11
339.391448
21
13.441144
0
LINE
8
0
10
339.391448
20
13.441144
11
339.674234
21
13.087108
0
LINE
8
0
10
339.674234
20
13.087108
11
339.971228
21
12.741621
0
LINE
8
0
10
339.971228
20
12.741621
11
340.282510
21
12.404690
0
LINE
8
0
10
340.282510
20
12.404690
11
340.608026
21
12.076313
0
LINE
8
0
10
340.608026
20
12.076313
11
340.947830
21
11.756488
0
LINE
8
0
10
340.947830
20
11.756488
11
341.301842
21
11.445222
0
LINE
8
0
10
341.301842
20
11.445222
11
341.670142
21
11.142507
0
LINE
8
0
10
341.670142
20
11.142507
11
342.052703
21
10.848349
0
LINE
8
0
10
342.052703
20
10.848349
11
342.450451
21
10.564401
0
LINE
8
0
10
342.450451
20
10.564401
11
342.864391
21
10.292341
0
LINE
8
0
10
342.864391
20
10.292341
11
343.294444
21
10.032155
0
LINE
8
0
10
343.294444
20
10.032155
11
343.740663
21
9.783849
0
LINE
8
0
10
343.740663
20
9.783849
11
344.203075
21
9.547431
0
LINE
8
0
10
344.203075
20
9.547431
11
344.681600
21
9.322890
0
LINE
8
0
10
344.681600
20
9.322890
11
345.176291
21
9.110229
0
LINE
8
0
10
345.176291
20
9.110229
11
345.687174
21
8.909445
0
LINE
8
0
10
345.687174
20
8.909445
11
346.214197
21
8.720546
0
LINE
8
0
10
346.214197
20
8.720546
11
346.757386
21
8.543529
0
LINE
8
0
10
346.757386
20
8.543529
11
347.318593
21
8.381004
0
LINE
8
0
10
347.318593
20
8.381004
11
347.899802
21
8.235584
0
LINE
8
0
10
347.899802
20
8.235584
11
348.500935
21
8.107277
0
LINE
8
0
10
348.500935
20
8.107277
11
349.122070
21
7.996075
0
LINE
8
0
10
349.122070
20
7.996075
11
349.763155
21
7.901981
0
LINE
8
0
10
349.763155
20
7.901981
11
350.424189
21
7.824993
0
LINE
8
0
10
350.424189
20
7.824993
11
351.105146
21
7.765118
0
LINE
8
0
10
351.105146
20
7.765118
11
351.806106
21
7.722348
0
LINE
8
0
10
351.806106
20
7.722348
11
352.527015
21
7.696683
0
LINE
8
0
10
352.527015
20
7.696683
11
353.267874
21
7.688137
0
LINE
8
0
10
353.267874
20
7.688137
11
354.000451
21
7.696922
0
LINE
8
0
10
354.000451
20
7.696922
11
354.715407
21
7.723300
0
LINE
8
0
10
354.715407
20
7.723300
11
355.412768
21
7.767256
0
LINE
8
0
10
355.412768
20
7.767256
11
356.092561
21
7.828800
0
LINE
8
0
10
356.092561
20
7.828800
11
356.754812
21
7.907924
0
LINE
8
0
10
356.754812
20
7.907924
11
357.399468
21
8.004629
0
LINE
8
0
10
357.399468
20
8.004629
11
358.026503
21
8.118924
0
LINE
8
0
10
358.026503
20
8.118924
11
358.635970
21
8.250797
0
LINE
8
0
10
358.635970
20
8.250797
11
359.227842
21
8.400252
0
LINE
8
0
10
359.227842
20
8.400252
11
359.802172
21
8.567289
0
LINE
8
0
10
359.802172
20
8.567289
11
360.360310
21
8.748827
0
LINE
8
0
10
360.360310
20
8.748827
11
360.903711
21
8.941766
0
LINE
8
0
10
360.903711
20
8.941766
11
361.432401
21
9.146109
0
LINE
8
0
10
361.432401
20
9.146109
11
361.946353
21
9.361861
0
LINE
8
0
10
361.946353
20
9.361861
11
362.445568
21
9.589013
0
LINE
8
0
10
362.445568
20
9.589013
11
362.930046
21
9.827577
0
LINE
8
0
10
362.930046
20
9.827577
11
363.399813
21
10.077542
0
LINE
8
0
10
363.399813
20
10.077542
11
363.854869
21
10.338913
0
LINE
8
0
10
363.854869
20
10.338913
11
364.295109
21
10.611687
0
LINE
8
0
10
364.295109
20
10.611687
11
364.720664
21
10.895870
0
LINE
8
0
10
364.720664
20
10.895870
11
365.131985
21
11.190269
0
LINE
8
0
10
365.131985
20
11.190269
11
365.529521
21
11.493695
0
LINE
8
0
10
365.529521
20
11.493695
11
365.913246
21
11.806154
0
LINE
8
0
10
365.913246
20
11.806154
11
366.283212
21
12.127636
0
LINE
8
0
10
366.283212
20
12.127636
11
366.639367
21
12.458158
0
LINE
8
0
10
366.639367
20
12.458158
11
366.981790
21
12.797697
0
LINE
8
0
10
366.981790
20
12.797697
11
367.310402
21
13.146275
0
LINE
8
0
10
367.310402
20
13.146275
11
367.625229
21
13.503875
0
LINE
8
0
10
367.625229
20
13.503875
11
367.926298
21
13.870508
0
LINE
8
0
10
367.926298
20
13.870508
11
368.213556
21
14.246174
0
LINE
8
0
10
368.213556
20
14.246174
11
368.488246
21
14.627536
0
LINE
8
0
10
368.488246
20
14.627536
11
368.751480
21
15.011274
0
LINE
8
0
10
368.751480
20
15.011274
11
369.003389
21
15.397393
0
LINE
8
0
10
369.003389
20
15.397393
11
369.243842
21
15.785883
0
LINE
8
0
10
369.243842
20
15.785883
11
369.472892
21
16.176751
0
LINE
8
0
10
369.472892
20
16.176751
11
369.690538
21
16.569995
0
LINE
8
0
10
369.690538
20
16.569995
11
369.896780
21
16.965615
0
LINE
8
0
10
369.896780
20
16.965615
11
370.091619
21
17.363614
0
LINE
8
0
10
370.091619
20
17.363614
11
370.275054
21
17.763986
0
LINE
8
0
10
370.275054
20
17.763986
11
370.447086
21
18.166737
0
LINE
8
0
10
370.447086
20
18.166737
11
370.608667
21
18.570435
0
LINE
8
0
10
370.608667
20
18.570435
11
370.760749
21
18.973659
0
LINE
8
0
10
370.760749
20
18.973659
11
370.903306
21
19.376405
0
LINE
8
0
10
370.903306
20
19.376405
11
371.036338
21
19.778680
0
LINE
8
0
10
371.036338
20
19.778680
11
371.159898
21
20.180484
0
LINE
8
0
10
371.159898
20
20.180484
11
371.273960
21
20.581803
0
LINE
8
0
10
371.273960
20
20.581803
11
371.378523
21
20.982652
0
LINE
8
0
10
371.378523
20
20.982652
11
371.473561
21
21.383027
0
LINE
8
0
10
371.473561
20
21.383027
11
371.559101
21
21.782920
0
LINE
8
0
10
371.559101
20
21.782920
11
371.635115
21
22.182342
0
LINE
8
0
10
371.635115
20
22.182342
11
371.702848
21
22.578201
0
LINE
8
0
10
371.702848
20
22.578201
11
371.763438
21
22.967405
0
LINE
8
0
10
371.763438
20
22.967405
11
371.816910
21
23.349958
0
LINE
8
0
10
371.816910
20
23.349958
11
371.863239
21
23.725859
0
LINE
8
0
10
371.863239
20
23.725859
11
371.902450
21
24.095106
0
LINE
8
0
10
371.902450
20
24.095106
11
371.934491
21
24.457698
0
LINE
8
0
10
371.934491
20
24.457698
11
371.959362
21
24.813642
0
LINE
8
0
10
371.959362
20
24.813642
11
371.977089
21
25.162926
0
LINE
8
0
10
371.977089
20
25.162926
11
371.987672
21
25.505556
0
LINE
8
0
10
371.987672
20
25.505556
11
371.991376
21
25.841542
0
LINE
8
0
10
371.991376
20
25.841542
11
371.992000
21
61.768200
0
LINE
8
0
10
371.992000
20
61.768200
11
371.986973
21
61.953059
0
LINE
8
0
10
371.986973
20
61.953059
11
371.972156
21
62.127467
0
LINE
8
0
10
371.972156
20
62.127467
11
371.947286
21
62.291416
0
LINE
8
0
10
371.947286
20
62.291416
11
371.912414
21
62.444911
0
LINE
8
0
10
371.912414
20
62.444911
11
371.867487
21
62.587955
0
LINE
8
0
10
371.867487
20
62.587955
11
371.812586
21
62.720545
0
LINE
8
0
10
371.812586
20
62.720545
11
371.747737
21
62.842669
0
LINE
8
0
10
371.747737
20
62.842669
11
371.672887
21
62.954339
0
LINE
8
0
10
371.672887
20
62.954339
11
371.588061
21
63.055566
0
LINE
8
0
10
371.588061
20
63.055566
11
371.493261
21
63.146342
0
LINE
8
0
10
371.493261
20
63.146342
11
371.391820
21
63.229974
0
LINE
8
0
10
371.391820
20
63.229974
11
371.287019
21
63.309809
0
LINE
8
0
10
371.287019
20
63.309809
11
371.178884
21
63.385842
0
LINE
8
0
10
371.178884
20
63.385842
11
371.067442
21
63.458079
0
LINE
8
0
10
371.067442
20
63.458079
11
370.952692
21
63.526513
0
LINE
8
0
10
370.952692
20
63.526513
11
370.834582
21
63.591143
0
LINE
8
0
10
370.834582
20
63.591143
11
370.713165
21
63.651971
0
LINE
8
0
10
370.713165
20
63.651971
11
370.588441
21
63.708993
0
LINE
8
0
10
370.588441
20
63.708993
11
370.460356
21
63.762217
0
LINE
8
0
10
370.460356
20
63.762217
11
370.328938
21
63.811638
0
LINE
8
0
10
370.328938
20
63.811638
11
362.725428
21
66.900568
0
LINE
8
0
10
362.725428
20
66.900568
11
362.725000
21
70.749800
0
LINE
8
0
10
362.725000
20
70.749800
11
388.435000
21
70.749800
0
LINE
8
0
10
388.435000
20
70.749800
11
388.435000
21
66.900500
0
LINE
8
0
10
388.435000
20
66.900500
11
380.783950
21
63.811570
0
LINE
8
0
10
380.783950
20
63.811570
11
380.652532
21
63.753359
0
LINE
8
0
10
380.652532
20
63.753359
11
380.524474
21
63.692767
0
LINE
8
0
10
380.524474
20
63.692767
11
380.399723
21
63.629799
0
LINE
8
0
10
380.399723
20
63.629799
11
380.278306
21
63.564463
0
LINE
8
0
10
380.278306
20
63.564463
11
380.160223
21
63.496745
0
LINE
8
0
10
380.160223
20
63.496745
11
380.045447
21
63.426652
0
LINE
8
0
10
380.045447
20
63.426652
11
379.934031
21
63.354172
0
LINE
8
0
10
379.934031
20
63.354172
11
379.825922
21
63.279329
0
LINE
8
0
10
379.825922
20
63.279329
11
379.721121
21
63.202106
0
LINE
8
0
10
379.721121
20
63.202106
11
379.619653
21
63.122509
0
LINE
8
0
10
379.619653
20
63.122509
11
379.524853
21
63.036257
0
LINE
8
0
10
379.524853
20
63.036257
11
379.440028
21
62.939073
0
LINE
8
0
10
379.440028
20
62.939073
11
379.365177
21
62.830956
0
LINE
8
0
10
379.365177
20
62.830956
11
379.300328
21
62.711917
0
LINE
8
0
10
379.300328
20
62.711917
11
379.245427
21
62.581941
0
LINE
8
0
10
379.245427
20
62.581941
11
379.200501
21
62.441043
0
LINE
8
0
10
379.200501
20
62.441043
11
379.165576
21
62.289201
0
LINE
8
0
10
379.165576
20
62.289201
11
379.140705
21
62.126445
0
LINE
8
0
10
379.140705
20
62.126445
11
379.125624
21
61.952754
0
LINE
8
0
10
379.125624
20
61.952754
11
379.120597
21
61.768131
0
LINE
8
0
10
379.120597
20
61.768131
11
379.120000
21
22.562500
0
LINE
8
0
10
379.120000
20
22.562500
11
379.107300
21
21.762703
0
LINE
8
0
10
379.107300
20
21.762703
11
379.069518
21
20.979066
0
LINE
8
0
10
379.069518
20
20.979066
11
379.006547
21
20.211585
0
LINE
8
0
10
379.006547
20
20.211585
11
378.918388
21
19.460262
0
LINE
8
0
10
378.918388
20
19.460262
11
378.805041
21
18.725094
0
LINE
8
0
10
378.805041
20
18.725094
11
378.666532
21
18.006087
0
LINE
8
0
10
378.666532
20
18.006087
11
378.502808
21
17.303238
0
LINE
8
0
10
378.502808
20
17.303238
11
378.313922
21
16.616545
0
LINE
8
0
10
378.313922
20
16.616545
11
378.099848
21
15.946012
0
LINE
8
0
10
378.099848
20
15.946012
11
377.860559
21
15.291629
0
LINE
8
0
10
377.860559
20
15.291629
11
377.600156
21
14.652695
0
LINE
8
0
10
377.600156
20
14.652695
11
377.322635
21
14.028493
0
LINE
8
0
10
377.322635
20
14.028493
11
377.027969
21
13.419023
0
LINE
8
0
10
377.027969
20
13.419023
11
376.716211
21
12.824291
0
LINE
8
0
10
376.716211
20
12.824291
11
376.387387
21
12.244283
0
LINE
8
0
10
376.387387
20
12.244283
11
376.041418
21
11.679007
0
LINE
8
0
10
376.041418
20
11.679007
11
375.678331
21
11.128465
0
LINE
8
0
10
375.678331
20
11.128465
11
375.298178
21
10.592658
0
LINE
8
0
10
375.298178
20
10.592658
11
374.900880
21
10.071578
0
LINE
8
0
10
374.900880
20
10.071578
11
374.486517
21
9.565230
0
LINE
8
0
10
374.486517
20
9.565230
11
374.057125
21
9.073375
0
LINE
8
0
10
374.057125
20
9.073375
11
373.614954
21
8.595779
0
LINE
8
0
10
373.614954
20
8.595779
11
373.159924
21
8.132441
0
LINE
8
0
10
373.159924
20
8.132441
11
372.692088
21
7.683359
0
LINE
8
0
10
372.692088
20
7.683359
11
372.211367
21
7.248530
0
LINE
8
0
10
372.211367
20
7.248530
11
371.717867
21
6.827959
0
LINE
8
0
10
371.717867
20
6.827959
11
371.211508
21
6.421649
0
LINE
8
0
10
371.211508
20
6.421649
11
370.692370
21
6.029590
0
LINE
8
0
10
370.692370
20
6.029590
11
370.160320
21
5.651792
0
LINE
8
0
10
370.160320
20
5.651792
11
369.615491
21
5.288247
0
LINE
8
0
10
369.615491
20
5.288247
11
369.061878
21
4.938249
0
LINE
8
0
10
369.061878
20
4.938249
11
368.503476
21
4.601080
0
LINE
8
0
10
368.503476
20
4.601080
11
367.940338
21
4.276744
0
LINE
8
0
10
367.940338
20
4.276744
11
367.372437
21
3.965235
0
LINE
8
0
10
367.372437
20
3.965235
11
366.799826
21
3.666560
0
LINE
8
0
10
366.799826
20
3.666560
11
366.222427
21
3.380715
0
LINE
8
0
10
366.222427
20
3.380715
11
365.640265
21
3.107700
0
LINE
8
0
10
365.640265
20
3.107700
11
365.053393
21
2.847520
0
LINE
8
0
10
365.053393
20
2.847520
11
364.461706
21
2.600167
0
LINE
8
0
10
364.461706
20
2.600167
11
363.865336
21
2.365643
0
LINE
8
0
10
363.865336
20
2.365643
11
363.266320
21
2.143481
0
LINE
8
0
10
363.266320
20
2.143481
11
362.666828
21
1.933196
0
LINE
8
0
10
362.666828
20
1.933196
11
362.066886
21
1.734790
0
LINE
8
0
10
362.066886
20
1.734790
11
361.466415
21
1.548267
0
LINE
8
0
10
361.466415
20
1.548267
11
360.865494
21
1.373626
0
LINE
8
0
10
360.865494
20
1.373626
11
360.264097
21
1.210860
0
LINE
8
0
10
360.264097
20
1.210860
11
359.662250
21
1.059979
0
LINE
8
0
10
359.662250
20
1.059979
11
359.059900
21
0.920978
0
LINE
8
0
10
359.059900
20
0.920978
11
358.457074
21
0.793856
0
LINE
8
0
10
358.457074
20
0.793856
11
357.853825
21
0.678614
0
LINE
8
0
10
357.853825
20
0.678614
11
357.253830
21
0.574778
0
LINE
8
0
10
357.253830
20
0.574778
11
356.661005
21
0.481872
0
LINE
8
0
10
356.661005
20
0.481872
11
356.075324
21
0.399896
0
LINE
8
0
10
356.075324
20
0.399896
11
355.496707
21
0.328853
0
LINE
8
0
10
355.496707
20
0.328853
11
354.925261
21
0.268737
0
LINE
8
0
10
354.925261
20
0.268737
11
354.360932
21
0.219551
0
LINE
8
0
10
354.360932
20
0.219551
11
353.803747
21
0.181298
0
LINE
8
0
10
353.803747
20
0.181298
11
353.253679
21
0.153972
0
LINE
8
0
10
353.253679
20
0.153972
11
352.710728
21
0.137568
0
LINE
8
0
10
352.710728
20
0.137568
11
352.174921
21
0.132091
0
LINE
8
0
10
352.174921
20
0.132091
11
350.851451
21
0.149209
0
LINE
8
0
10
350.851451
20
0.149209
11
349.561211
21
0.200531
0
LINE
8
0
10
349.561211
20
0.200531
11
348.304231
21
0.286073
0
LINE
8
0
10
348.304231
20
0.286073
11
347.080531
21
0.405829
0
LINE
8
0
10
347.080531
20
0.405829
11
345.890141
21
0.559800
0
LINE
8
0
10
345.890141
20
0.559800
11
344.732961
21
0.747985
0
LINE
8
0
10
344.732961
20
0.747985
11
343.609061
21
0.970391
0
LINE
8
0
10
343.609061
20
0.970391
11
342.518421
21
1.227007
0
LINE
8
0
10
342.518421
20
1.227007
11
341.461071
21
1.517839
0
LINE
8
0
10
341.461071
20
1.517839
11
340.436981
21
1.842895
0
LINE
8
0
10
340.436981
20
1.842895
11
339.446144
21
2.196455
0
LINE
8
0
10
339.446144
20
2.196455
11
338.488565
21
2.572832
0
LINE
8
0
10
338.488565
20
2.572832
11
337.564244
21
2.972016
0
LINE
8
0
10
337.564244
20
2.972016
11
336.673234
21
3.394007
0
LINE
8
0
10
336.673234
20
3.394007
11
335.815482
21
3.838816
0
LINE
8
0
10
335.815482
20
3.838816
11
334.990962
21
4.306432
0
LINE
8
0
10
334.990962
20
4.306432
11
334.199727
21
4.796860
0
LINE
8
0
10
334.199727
20
4.796860
11
333.441723
21
5.310095
0
LINE
8
0
10
333.441723
20
5.310095
11
332.717030
21
5.846145
0
LINE
8
0
10
332.717030
20
5.846145
11
332.025595
21
6.405005
0
LINE
8
0
10
332.025595
20
6.405005
11
331.367630
21
6.983346
0
LINE
8
0
10
331.367630
20
6.983346
11
330.743426
21
7.577845
0
LINE
8
0
10
330.743426
20
7.577845
11
330.152983
21
8.188503
0
LINE
8
0
10
330.152983
20
8.188503
11
329.596247
21
8.815319
0
LINE
8
0
10
329.596247
20
8.815319
11
329.073272
21
9.458290
0
LINE
8
0
10
329.073272
20
9.458290
11
328.584032
21
10.117422
0
LINE
8
0
10
328.584032
20
10.117422
11
328.128526
21
10.792709
0
LINE
8
0
10
328.128526
20
10.792709
11
327.706781
21
11.484152
0
LINE
8
0
10
327.706781
20
11.484152
11
327.318770
21
12.191758
0
LINE
8
0
10
327.318770
20
12.191758
11
326.964493
21
12.915517
0
LINE
8
0
10
326.964493
20
12.915517
11
326.643951
21
13.649732
0
LINE
8
0
10
326.643951
20
13.649732
11
326.357169
21
14.388699
0
LINE
8
0
10
326.357169
20
14.388699
11
326.104095
21
15.132418
0
LINE
8
0
10
326.104095
20
15.132418
11
325.884782
21
15.880892
0
LINE
8
0
10
325.884782
20
15.880892
11
325.699203
21
16.634115
0
LINE
8
0
10
325.699203
20
16.634115
11
325.547385
21
17.392090
0
LINE
8
0
10
325.547385
20
17.392090
11
325.429275
21
18.154819
0
LINE
8
0
10
325.429275
20
18.154819
11
325.344926
21
18.922300
0
LINE
8
0
10
325.344926
20
18.922300
11
325.294337
21
19.694530
0
LINE
8
0
10
325.294337
20
19.694530
11
325.277404
21
20.471515
0
LINE
8
0
10
325.277404
20
20.471515
11
325.278000
21
62.005800
 0 
ENDSEC
 0 
EOF