<?xml version="1.0" encoding="UTF-8" standalone="no"?>
<svg
   viewBox="0 0 1468.601 274.00877"
   width="1468.6011"
   height="274.00876"
   version="1.1"
   id="svg34"
   sodipodi:docname="YONDU.svg"
   inkscape:version="1.2 (dc2aedaf03, 2022-05-15)"
   xmlns:inkscape="http://www.inkscape.org/namespaces/inkscape"
   xmlns:sodipodi="http://sodipodi.sourceforge.net/DTD/sodipodi-0.dtd"
   xmlns="http://www.w3.org/2000/svg"
   xmlns:svg="http://www.w3.org/2000/svg">
  <sodipodi:namedview
     id="namedview36"
     pagecolor="#505050"
     bordercolor="#eeeeee"
     borderopacity="1"
     inkscape:showpageshadow="0"
     inkscape:pageopacity="0"
     inkscape:pagecheckerboard="0"
     inkscape:deskcolor="#505050"
     showgrid="false"
     inkscape:zoom="0.21024131"
     inkscape:cx="-665.90149"
     inkscape:cy="-530.34297"
     inkscape:window-width="1920"
     inkscape:window-height="1111"
     inkscape:window-x="-9"
     inkscape:window-y="-9"
     inkscape:window-maximized="1"
     inkscape:current-layer="g32" />
  <desc
     id="desc2">YONDU.dxf - scale = 1.000000, origin = (0.000000, 0.000000), method = manual</desc>
  <defs
     id="defs16">
    <marker
       id="DistanceX"
       orient="auto"
       refX="0"
       refY="0"
       style="overflow:visible">
      <path
         d="M 3,-3 -3,3 M 0,-5 V 5"
         style="stroke:#000000;stroke-width:0.5"
         id="path4" />
    </marker>
    <pattern
       id="Hatch"
       patternUnits="userSpaceOnUse"
       width="8"
       height="8"
       x="0"
       y="0">
      <path
         d="M8 4 l-4,4"
         stroke="#000000"
         stroke-width="0.25"
         linecap="square"
         id="path7" />
      <path
         d="M6 2 l-4,4"
         stroke="#000000"
         stroke-width="0.25"
         linecap="square"
         id="path9" />
      <path
         d="M4 0 l-4,4"
         stroke="#000000"
         stroke-width="0.25"
         linecap="square"
         id="path11" />
    </pattern>
    <symbol
       id="*MODEL_SPACE" />
    <symbol
       id="*PAPER_SPACE" />
  </defs>
  <g
     inkscape:groupmode="layer"
     inkscape:label="0"
     id="g32"
     transform="translate(-422.25287,-713.9692)">
    <path
       d="m 489.56814,966.28382 30.35427,-10.05822 0.59805,-0.18949 0.57302,-0.20924 0.54776,-0.229 0.52267,-0.24876 0.49753,-0.26852 0.47238,-0.28828 0.44724,-0.30802 0.4221,-0.32781 0.39695,-0.34754 0.37174,-0.3673 0.3413,-0.39783 0.30531,-0.43915 0.26944,-0.48047 0.23351,-0.52177 0.19752,-0.56308 0.16171,-0.60439 0.12573,-0.6457 0.0898,-0.68701 0.0539,-0.72833 0.0179,-0.76963 v -61.96577 l -74.53852,-132.55288 -0.29366,-0.50382 -0.30623,-0.50559 -0.31881,-0.5074 -0.33138,-0.50923 -0.34397,-0.51096 -0.35653,-0.51282 -0.36909,-0.51457 -0.38167,-0.51635 -0.39426,-0.51821 -0.40682,-0.51999 -0.42117,-0.50739 -0.43737,-0.48045 -0.4535,-0.4535 -0.4697,-0.42659 -0.48582,-0.39963 -0.50203,-0.37268 -0.51817,-0.34579 -0.53435,-0.3188 -0.5505,-0.29188 -0.56668,-0.26491 -20.83486,-8.98053 v -14.54849 h 97.16954 v 14.54849 l -29.09699,12.03392 51.18914,87.47052 9.33971,22.09215 h 3.77186 l 60.16966,-108.485 -29.27657,-13.11159 v -14.54849 h 84.41716 v 14.54849 l -20.29605,9.69897 -0.50116,0.26494 -0.49747,0.29187 -0.49395,0.31881 -0.49032,0.34573 -0.48674,0.3727 -0.48317,0.39964 -0.47959,0.42659 -0.47596,0.45352 -0.47233,0.48043 -0.4688,0.50742 -0.45803,0.51996 -0.44003,0.51817 -0.42209,0.51639 -0.4041,0.5146 -0.38622,0.51278 -0.36818,0.511 -0.35023,0.5092 -0.33225,0.50739 -0.31436,0.50563 -0.29637,0.50379 -75.43657,130.93638 v 62.86383 l 0.0171,0.76963 0.0512,0.72833 0.0853,0.68702 0.11949,0.64569 0.15352,0.60439 0.18772,0.56308 0.2218,0.52177 0.25601,0.48045 0.29002,0.43917 0.32423,0.39783 0.35116,0.3673 0.37082,0.34756 0.39067,0.32779 0.41044,0.30802 0.43017,0.28828 0.44995,0.26852 0.46967,0.24876 0.4894,0.229 0.50923,0.20926 0.52896,0.18947 30.71345,10.05822 v 14.90771 h -113.3345 z"
       style="fill:none;stroke:#000000"
       id="path18" />
    <path
       d="m 826.15907,987.1187 -6.07264,-0.0934 -5.9325,-0.2802 -5.79254,-0.46699 -5.65239,-0.65378 -5.51219,-0.84059 -5.37218,-1.02736 -5.23208,-1.21418 -5.09195,-1.40096 -4.95186,-1.58775 -4.81184,-1.77457 -4.66714,-1.95147 -4.51813,-2.11852 -4.36904,-2.28554 -4.21996,-2.45259 -4.07088,-2.61962 -3.9218,-2.78667 -3.77272,-2.9537 -3.6237,-3.12074 -3.47457,-3.28778 -3.32542,-3.45481 -3.17197,-3.61468 -3.01383,-3.76734 -2.85586,-3.92 -2.69774,-4.07268 -2.53971,-4.22536 -2.38165,-4.37801 -2.22362,-4.53069 -2.06548,-4.68335 -1.90747,-4.83603 -1.7494,-4.98868 -1.58687,-5.13149 -1.41986,-5.26441 -1.25273,-5.39728 -1.08577,-5.53025 -0.9187,-5.66312 -0.75168,-5.79605 -0.58462,-5.92896 -0.41765,-6.06186 -0.25052,-6.19479 -0.0835,-6.32769 0.0871,-5.94871 0.26137,-5.84812 0.43553,-5.74755 0.60981,-5.64698 0.78398,-5.54639 0.95826,-5.44582 1.13243,-5.34521 1.30665,-5.24463 1.48094,-5.14408 1.65504,-5.04345 1.81952,-4.92406 1.97391,-4.78572 2.12835,-4.64741 2.28284,-4.50919 2.43735,-4.37079 2.5918,-4.23257 2.74624,-4.0942 2.90073,-3.95592 3.05518,-3.81765 3.20968,-3.67932 3.35957,-3.52938 3.50513,-3.3677 3.65057,-3.20605 3.79614,-3.04439 3.94153,-2.88277 4.08703,-2.7211 4.23253,-2.55947 4.37803,-2.39778 4.52349,-2.23617 4.66899,-2.07451 4.80463,-1.89398 4.93029,-1.69463 5.05608,-1.49527 5.18174,-1.29589 5.30752,-1.09653 5.43318,-0.89716 5.55903,-0.69779 5.68463,-0.49842 5.81047,-0.29905 5.93608,-0.0997 6.41665,0.10237 6.24594,0.30716 6.07535,0.51188 5.90471,0.71665 5.73405,0.92141 5.56353,1.12617 5.39276,1.33091 5.22216,1.53566 5.05158,1.74042 4.88093,1.94519 4.71299,2.12659 4.54776,2.28467 4.38254,2.44271 4.21725,2.60076 4.05202,2.75884 3.8868,2.91685 3.72151,3.07496 3.55634,3.23298 3.391,3.39106 3.22582,3.54913 3.06234,3.69637 2.90073,3.83293 2.73909,3.96938 2.57743,4.10592 2.41573,4.24242 2.25413,4.3789 2.09247,4.51541 1.93083,4.65192 1.76917,4.78845 1.60752,4.9249 1.45031,5.03629 1.29772,5.12252 1.14499,5.20873 0.99235,5.29495 0.83969,5.38111 0.68703,5.46738 0.53438,5.55355 0.38167,5.63979 0.22901,5.72601 0.0763,5.8122 -0.0323,3.47996 -0.097,3.47099 -0.16171,3.46202 -0.22625,3.45299 -0.29101,3.44405 -0.3556,3.43506 -0.4203,3.42607 -0.48496,3.41709 -0.5496,3.40813 -0.61426,3.39913 -0.68074,3.37669 -0.74898,3.34077 -0.81726,3.30483 -0.88542,3.26893 -0.95376,3.23299 -1.02199,3.19708 -1.09027,3.16115 -1.15844,3.12522 -1.22677,3.08932 -1.29501,3.05339 -1.36594,3.01208 -1.43958,2.96537 -1.51317,2.91868 -1.58688,2.87198 -1.66052,2.82527 -1.73417,2.77859 -1.80775,2.73188 -1.8814,2.68517 -1.95511,2.63851 -2.02869,2.59178 -2.10413,2.5334 -2.18135,2.46337 -2.25868,2.39332 -2.33579,2.32326 -2.41307,2.25323 -2.49036,2.18316 -2.56751,2.11312 -2.64479,2.04309 -2.72201,1.97302 -2.79924,1.90297 -2.87732,1.82755 -2.95645,1.74671 -3.03534,1.6659 -3.11447,1.58506 -3.19347,1.50425 -3.27254,1.42341 -3.35155,1.34259 -3.43056,1.26177 -3.50957,1.18095 -3.58864,1.10011 -3.67128,1.00673 -3.75744,0.90074 -3.84366,0.79478 -3.92993,0.68881 -4.01609,0.58284 -4.10226,0.47686 -4.18853,0.3709 -4.2748,0.26493 -4.36097,0.15895 z"
       style="fill:none;stroke:#000000"
       id="path20" />
    <path
       d="m 829.39205,963.58966 3.97394,-0.0772 3.87503,-0.23169 3.77641,-0.38616 3.67745,-0.54064 3.57878,-0.6951 3.47992,-0.84955 3.3812,-1.00402 3.28246,-1.1585 3.18355,-1.31295 3.08483,-1.46742 2.98516,-1.60753 2.88453,-1.73324 2.78396,-1.85897 2.68343,-1.9847 2.58274,-2.11043 2.48227,-2.23615 2.38158,-2.36189 2.28112,-2.48761 2.18043,-2.61334 2.07991,-2.73908 1.97932,-2.85849 1.87869,-2.97167 1.77817,-3.08482 1.67759,-3.19798 1.57696,-3.31112 1.47638,-3.42427 1.37586,-3.53745 1.27522,-3.65058 1.17464,-3.76376 1.07413,-3.8769 0.97256,-3.97749 0.8702,-4.06548 0.76783,-4.1535 0.66547,-4.24153 0.56309,-4.32951 0.46068,-4.41754 0.35837,-4.50555 0.25588,-4.59355 0.15358,-4.68156 0.0512,-4.76957 -0.0539,-5.44132 -0.16165,-5.33174 -0.26944,-5.22217 -0.37711,-5.11265 -0.48502,-5.00307 -0.59268,-4.89347 -0.70053,-4.78396 -0.8082,-4.67435 -0.91599,-4.56483 -1.02383,-4.45526 -1.13249,-4.33398 -1.24194,-4.2011 -1.35164,-4.06823 -1.4611,-3.93524 -1.57072,-3.80236 -1.68025,-3.66949 -1.78982,-3.53651 -1.89939,-3.40363 -2.00897,-3.27072 -2.11849,-3.13779 -2.22898,-2.9995 -2.3403,-2.85584 -2.4517,-2.7121 -2.56302,-2.56844 -2.67444,-2.42477 -2.78573,-2.28104 -2.89717,-2.13737 -3.00846,-1.99368 -3.11989,-1.85001 -3.23119,-1.70628 -3.34526,-1.55276 -3.46194,-1.38927 -3.57877,-1.22585 -3.69545,-1.06242 -3.81228,-0.89894 -3.92901,-0.73551 -4.04574,-0.57207 -4.16246,-0.40863 -4.27919,-0.24516 -4.39603,-0.0817 -4.21368,0.0826 -4.09153,0.24787 -3.96943,0.41312 -3.84724,0.57833 -3.72514,0.74361 -3.603,0.90881 -3.48085,1.07409 -3.35876,1.23929 -3.23649,1.40458 -3.11453,1.5698 -2.9986,1.7135 -2.88903,1.83561 -2.77945,1.95778 -2.66994,2.07985 -2.56036,2.20206 -2.45079,2.32414 -2.34122,2.44635 -2.23169,2.5684 -2.12212,2.69056 -2.01249,2.81273 -1.90568,2.92317 -1.80153,3.02196 -1.69731,3.12072 -1.59316,3.21954 -1.48895,3.31831 -1.3848,3.41712 -1.28064,3.51586 -1.17649,3.61467 -1.07222,3.71347 -0.96813,3.81222 -0.87019,3.88766 -0.77868,3.9398 -0.68697,3.99184 -0.5954,4.04395 -0.50381,4.09603 -0.41224,4.1481 -0.32053,4.20021 -0.22907,4.25229 -0.13737,4.30439 -0.0458,4.35644 0.0529,5.40809 0.15894,5.30392 0.26494,5.19974 0.37094,5.09555 0.47683,4.99139 0.58282,4.88722 0.68882,4.78303 0.79482,4.67888 0.90071,4.5747 1.0067,4.47051 1.11456,4.35376 1.224,4.22445 1.33365,4.09514 1.44316,3.9658 1.55273,3.8365 1.66231,3.70716 1.77182,3.57785 1.88146,3.44853 1.99098,3.31921 2.10055,3.1899 2.21192,3.05337 2.32506,2.90971 2.43822,2.766 2.55136,2.62233 2.66452,2.47863 2.77766,2.33494 2.89088,2.19126 3.00397,2.04756 3.11717,1.90388 3.23027,1.76018 3.34527,1.60393 3.46199,1.4351 3.57877,1.26625 3.6955,1.09742 3.81223,0.92859 3.92901,0.75976 4.04568,0.59091 4.16252,0.42208 4.27925,0.25326 z"
       style="fill:none;stroke:#000000"
       id="path22" />
    <path
       d="m 998.4059,966.28382 29.0971,-11.4951 0.5298,-0.22092 0.512,-0.2317 0.4939,-0.24248 0.4759,-0.25325 0.458,-0.26403 0.44,-0.2748 0.4222,-0.28557 0.4041,-0.29637 0.3861,-0.30713 0.3683,-0.31791 0.3411,-0.34665 0.3055,-0.39334 0.2694,-0.44006 0.2335,-0.48675 0.1974,-0.53344 0.1617,-0.58014 0.1258,-0.62684 0.09,-0.67354 0.054,-0.72024 0.018,-0.76695 V 753.62445 l -0.019,-0.70047 -0.057,-0.66454 -0.094,-0.62868 -0.132,-0.59271 -0.1697,-0.55678 -0.2074,-0.52089 -0.2452,-0.48493 -0.283,-0.44905 -0.3205,-0.4131 -0.3584,-0.37717 -0.3835,-0.35026 -0.3961,-0.33225 -0.4085,-0.31433 -0.4213,-0.29637 -0.4336,-0.27838 -0.4464,-0.26044 -0.4588,-0.24251 -0.4716,-0.22451 -0.4841,-0.20652 -0.4965,-0.18859 -29.99516,-10.41743 v -14.54849 h 77.77166 l 126.446,179.79055 12.932,22.63099 h 3.7719 V 754.5225 l -0.021,-0.69779 -0.062,-0.65647 -0.1034,-0.61514 -0.1445,-0.57389 -0.1858,-0.53253 -0.2274,-0.49125 -0.2684,-0.44991 -0.3098,-0.40863 -0.3512,-0.36731 -0.3925,-0.32599 -0.4175,-0.30084 -0.4267,-0.29187 -0.4354,-0.28287 -0.4446,-0.27394 -0.4535,-0.26492 -0.4626,-0.25594 -0.4714,-0.24697 -0.4805,-0.23796 -0.4894,-0.22901 -0.4984,-0.22001 -28.7378,-11.67472 v -14.54849 h 97.3492 v 14.54849 l -28.9174,11.67472 -0.4311,0.18679 -0.4309,0.20116 -0.4312,0.21552 -0.4311,0.2299 -0.4311,0.24427 -0.431,0.25865 -0.431,0.27302 -0.4312,0.28735 -0.431,0.30176 -0.4312,0.31609 -0.4094,0.34309 -0.3665,0.38259 -0.3233,0.42206 -0.28,0.46157 -0.2372,0.50113 -0.194,0.54064 -0.1508,0.58014 -0.1078,0.61965 -0.065,0.65918 -0.022,0.69868 v 187.15463 l -5.5679,41.31051 h -24.7864 l -137.5819,-194.87789 -12.3932,-22.45138 h -3.7719 v 180.86824 l 0.021,0.76785 0.062,0.72293 0.1033,0.67802 0.1445,0.63315 0.1859,0.58821 0.2273,0.54332 0.2685,0.49842 0.3098,0.45353 0.3511,0.40861 0.3925,0.36372 0.414,0.33316 0.4159,0.31702 0.4175,0.30086 0.4194,0.28467 0.4212,0.26852 0.4229,0.25235 0.4249,0.2362 0.4265,0.22002 0.4284,0.20386 0.4302,0.18769 28.558,11.4951 v 14.90771 h -97.3491 z"
       style="fill:none;stroke:#000000"
       id="path24" />
    <path
       d="m 1323.5018,966.28382 29.097,-10.05822 0.4965,-0.18949 0.4841,-0.20924 0.4715,-0.229 0.459,-0.24876 0.4462,-0.26852 0.4338,-0.28828 0.4211,-0.30802 0.4087,-0.32781 0.3961,-0.34754 0.3834,-0.3673 0.3584,-0.39783 0.3205,-0.43915 0.2829,-0.48047 0.2452,-0.52177 0.2075,-0.56308 0.1696,-0.60439 0.1322,-0.6457 0.094,-0.68701 0.057,-0.72833 0.019,-0.76963 V 753.62445 l -0.019,-0.70047 -0.057,-0.66454 -0.094,-0.62868 -0.1322,-0.59271 -0.1696,-0.55678 -0.2075,-0.52089 -0.2452,-0.48493 -0.2829,-0.44905 -0.3205,-0.4131 -0.3584,-0.37717 -0.3834,-0.35026 -0.3961,-0.33225 -0.4087,-0.31433 -0.4211,-0.29637 -0.4338,-0.27838 -0.4462,-0.26044 -0.459,-0.24251 -0.4715,-0.22451 -0.4841,-0.20652 -0.4965,-0.18859 -29.097,-10.41743 v -14.54849 h 122.315 l 2.6385,0.0242 2.6708,0.0727 2.7032,0.12125 2.7354,0.1697 2.7679,0.21826 2.8,0.26672 2.8325,0.31523 2.8649,0.36371 2.8971,0.41217 2.9295,0.46074 2.9447,0.51996 2.9429,0.59003 2.9411,0.66007 2.9394,0.73012 2.9375,0.80015 2.9357,0.87023 2.934,0.94024 2.9321,1.01031 2.9303,1.08038 2.9286,1.15039 2.9151,1.22318 2.8899,1.29857 2.8649,1.37402 2.8396,1.44947 2.8145,1.52491 2.7894,1.60031 2.7642,1.67578 2.739,1.75121 2.714,1.82664 2.6887,1.90208 2.6439,1.98918 2.5793,2.08798 2.5144,2.18677 2.4499,2.28556 2.3853,2.38432 2.3205,2.48312 2.256,2.58193 2.1912,2.68066 2.1266,2.77952 2.062,2.87824 1.9892,2.98064 1.9083,3.08661 1.8275,3.19261 1.7468,3.29855 1.6658,3.40452 1.5852,3.51049 1.5043,3.61644 1.4233,3.72249 1.3426,3.82838 1.2618,3.93437 1.1602,4.05023 1.0382,4.17596 0.916,4.30168 0.7939,4.42741 0.6717,4.55312 0.5496,4.67888 0.4275,4.8046 0.3054,4.93036 0.1832,5.05601 0.061,5.18177 -0.1032,6.59085 -0.3099,6.40938 -0.5163,6.22801 -0.723,6.04663 -0.9294,5.86519 -1.1361,5.68378 -1.3425,5.50239 -1.5492,5.32097 -1.7558,5.13957 -1.9622,4.95815 -2.1409,4.78305 -2.2919,4.61421 -2.4428,4.44536 -2.5934,4.27655 -2.7446,4.1077 -2.8953,3.93886 -3.0462,3.77004 -3.197,3.60119 -3.348,3.43237 -3.4989,3.26353 -3.6353,3.0965 -3.7574,2.93124 -3.8795,2.766 -4.0018,2.60078 -4.124,2.43552 -4.2459,2.27029 -4.3681,2.10504 -4.4903,1.93979 -4.6124,1.77457 -4.7346,1.60931 -4.8306,1.45035 -4.9007,1.2977 -4.9707,1.14501 -5.0408,0.99235 -5.1108,0.83969 -5.1809,0.687 -5.2509,0.53436 -5.3211,0.38166 -5.391,0.22901 -5.4611,0.0763 h -121.5965 z"
       style="fill:none;stroke:#000000"
       id="path26" />
    <path
       d="m 1445.4576,957.12366 4.5002,-0.0664 4.3762,-0.19937 4.2522,-0.33229 4.1285,-0.46519 4.0044,-0.5981 3.8804,-0.73101 3.7566,-0.86393 3.6327,-0.99684 3.5087,-1.12976 3.3847,-1.26266 3.2644,-1.3902 3.1477,-1.51232 3.031,-1.63445 2.9141,-1.7566 2.7975,-1.87873 2.6807,-2.00087 2.564,-2.123 2.4471,-2.24514 2.3305,-2.36726 2.2137,-2.48941 2.0987,-2.60885 1.9856,-2.72561 1.8725,-2.84233 1.7593,-2.9591 1.6462,-3.07582 1.533,-3.1926 1.4197,-3.30932 1.3066,-3.42609 1.1936,-3.54283 1.0804,-3.65956 0.9725,-3.76915 0.8702,-3.87151 0.7679,-3.97388 0.6656,-4.07627 0.5629,-4.17867 0.4607,-4.28101 0.3584,-4.38342 0.2559,-4.48577 0.1536,-4.58816 0.051,-4.69053 -0.07,-5.15755 -0.2101,-5.05515 -0.3502,-4.95276 -0.4904,-4.85042 -0.6305,-4.74799 -0.7705,-4.64564 -0.9107,-4.54326 -1.0507,-4.4409 -1.1907,-4.33848 -1.331,-4.23614 -1.4602,-4.12206 -1.5788,-3.99634 -1.6973,-3.87062 -1.8159,-3.74486 -1.9344,-3.61921 -2.0529,-3.49342 -2.1715,-3.3677 -2.29,-3.24198 -2.4086,-3.11625 -2.5271,-2.99053 -2.6404,-2.85939 -2.7479,-2.7229 -2.8559,-2.58641 -2.9636,-2.44989 -3.0713,-2.31338 -3.1792,-2.17688 -3.2868,-2.04037 -3.3946,-1.9039 -3.5025,-1.76738 -3.6102,-1.63085 -3.7072,-1.48448 -3.7933,-1.32822 -3.8796,-1.17197 -3.9658,-1.0157 -4.0521,-0.85944 -4.1382,-0.70318 -4.2244,-0.5469 -4.3107,-0.39066 -4.3969,-0.23443 -4.4831,-0.0781 h -35.9222 V 957.1237 Z"
       style="fill:none;stroke:#000000"
       id="path28" />
    <path
       d="m 1651.651,753.62445 -0.019,-0.69958 -0.057,-0.66186 -0.094,-0.62414 -0.1321,-0.58646 -0.1697,-0.54871 -0.2074,-0.51097 -0.2452,-0.47327 -0.2829,-0.43557 -0.3206,-0.39784 -0.3584,-0.36012 -0.3888,-0.33496 -0.4122,-0.32238 -0.4355,-0.30986 -0.459,-0.29727 -0.4822,-0.28469 -0.5056,-0.2721 -0.5289,-0.25951 -0.5524,-0.24698 -0.5757,-0.2344 -0.5989,-0.22181 -28.5582,-10.41743 v -14.54849 h 110.1015 v 14.54849 l -28.9173,10.41743 -0.4966,0.18859 -0.4841,0.20652 -0.4714,0.22457 -0.459,0.24245 -0.4464,0.26044 -0.4336,0.27838 -0.4213,0.29637 -0.4086,0.3143 -0.3961,0.33228 -0.3834,0.35026 -0.3584,0.37717 -0.3205,0.4131 -0.2829,0.44905 -0.2451,0.48493 -0.2075,0.52089 -0.1697,0.55678 -0.1321,0.59271 -0.094,0.62868 -0.057,0.66454 -0.019,0.70047 v 136.14512 l 0.01,1.34079 0.03,1.36414 0.05,1.38749 0.069,1.41084 0.089,1.4342 0.1087,1.45753 0.1283,1.48091 0.1482,1.50423 0.168,1.52759 0.1876,1.55095 0.2138,1.56082 0.2461,1.55722 0.2783,1.55364 0.3108,1.55004 0.343,1.54645 0.3754,1.54287 0.4078,1.53925 0.44,1.53568 0.4723,1.53209 0.5048,1.52848 0.5415,1.52131 0.5828,1.51052 0.6241,1.49976 0.6656,1.48898 0.7068,1.47819 0.748,1.46741 0.7894,1.45666 0.8307,1.44587 0.8721,1.43508 0.9132,1.42432 0.9609,1.40276 1.0148,1.37044 1.0688,1.33809 1.1225,1.30578 1.1765,1.27344 1.2303,1.24111 1.2843,1.20879 1.338,1.17644 1.392,1.14412 1.4459,1.11178 1.5033,1.07319 1.5645,1.02826 1.6254,0.98338 1.6865,0.93848 1.7477,0.89355 1.8086,0.84866 1.8697,0.80376 1.9309,0.75887 1.9919,0.71395 2.053,0.66904 2.1211,0.61427 2.1967,0.54962 2.272,0.48494 2.3476,0.42029 2.423,0.35563 2.4984,0.29098 2.5737,0.2263 2.6493,0.16165 2.7247,0.097 2.8001,0.0323 2.7688,-0.0332 2.7022,-0.0997 2.6357,-0.16613 2.5693,-0.23261 2.503,-0.29905 2.4365,-0.3655 2.3699,-0.43198 2.3035,-0.49842 2.237,-0.56487 2.1707,-0.63132 2.1095,-0.68613 2.0538,-0.72922 1.9982,-0.77232 1.9425,-0.81544 1.8868,-0.85853 1.8311,-0.90166 1.7755,-0.94475 1.7199,-0.98786 1.6639,-1.03096 1.6084,-1.07408 1.5546,-1.11269 1.5025,-1.14681 1.4503,-1.18095 1.3983,-1.21505 1.3461,-1.24922 1.2942,-1.2833 1.242,-1.31746 1.1899,-1.35156 1.1379,-1.3857 1.0857,-1.41984 1.0382,-1.44137 0.9949,-1.45035 0.9521,-1.45935 0.9088,-1.46831 0.8657,-1.4773 0.8226,-1.48628 0.7795,-1.49526 0.7364,-1.50425 0.6933,-1.51322 0.6502,-1.52221 0.6107,-1.52579 0.5748,-1.524 0.5388,-1.52219 0.5028,-1.52041 0.467,-1.51863 0.4311,-1.5168 0.3952,-1.51502 0.3592,-1.51323 0.3233,-1.51141 0.2873,-1.50963 0.256,-1.49616 0.229,-1.47101 0.2021,-1.44587 0.1751,-1.42073 0.1482,-1.39558 0.1211,-1.37043 0.094,-1.3453 0.067,-1.32013 0.04,-1.29498 0.014,-1.26987 V 754.5225 l -0.019,-0.69868 -0.056,-0.65918 -0.094,-0.61965 -0.1318,-0.58014 -0.1698,-0.54064 -0.2075,-0.50113 -0.2451,-0.46157 -0.2829,-0.42206 -0.3206,-0.38259 -0.3583,-0.34309 -0.3834,-0.31609 -0.3961,-0.30174 -0.4087,-0.28737 -0.4212,-0.27302 -0.4337,-0.25865 -0.4464,-0.24427 -0.4589,-0.2299 -0.4714,-0.21552 -0.4841,-0.20116 -0.4967,-0.18679 -28.7377,-11.67472 v -14.54849 h 97.1696 v 14.54849 l -28.9174,11.67472 -0.4967,0.22001 -0.484,0.22901 -0.4715,0.23799 -0.4589,0.24694 -0.4463,0.25594 -0.4338,0.26492 -0.4211,0.27394 -0.4086,0.28287 -0.3961,0.29187 -0.3835,0.30084 -0.3583,0.32599 -0.3206,0.36731 -0.2829,0.40863 -0.2451,0.44991 -0.2075,0.49125 -0.1698,0.53253 -0.132,0.57389 -0.094,0.61514 -0.057,0.65647 -0.019,0.69779 v 148.17904 l -0.048,3.02286 -0.1428,2.96178 -0.238,2.90072 -0.3332,2.83965 -0.4284,2.77859 -0.5235,2.71751 -0.6188,2.65644 -0.7139,2.59538 -0.8091,2.5343 -0.9044,2.47326 -0.9842,2.41487 -1.0489,2.35919 -1.1137,2.30351 -1.1783,2.24781 -1.2428,2.19216 -1.3076,2.13648 -1.3723,2.08079 -1.4368,2.0251 -1.5016,1.96944 -1.5661,1.91376 -1.6229,1.85898 -1.6712,1.80509 -1.7198,1.7512 -1.7682,1.69732 -1.8169,1.64345 -1.8652,1.58956 -1.9138,1.53566 -1.9621,1.4818 -2.0109,1.4279 -2.0592,1.37403 -2.0924,1.32283 -2.1105,1.27434 -2.1284,1.22584 -2.1464,1.17736 -2.1642,1.12885 -2.1823,1.08036 -2.2003,1.03187 -2.2181,0.98336 -2.2363,0.93488 -2.254,0.88639 -2.264,0.83967 -2.2658,0.79478 -2.2675,0.74988 -2.2695,0.70497 -2.2712,0.66006 -2.273,0.61518 -2.2747,0.57026 -2.2766,0.52536 -2.2784,0.48046 -2.28,0.43556 -2.2677,0.39245 -2.2406,0.35114 -2.2136,0.30983 -2.1869,0.26851 -2.1598,0.22721 -2.1329,0.1859 -2.1059,0.14458 -2.079,0.10328 -2.0521,0.062 -2.0251,0.0207 -5.0021,-0.0647 -4.8765,-0.19397 -4.7508,-0.32331 -4.625,-0.45262 -4.4991,-0.58194 -4.3736,-0.71125 -4.2478,-0.84059 -4.1221,-0.96989 -3.9963,-1.09921 -3.8706,-1.22856 -3.7449,-1.33629 -3.6192,-1.42253 -3.4935,-1.50873 -3.3676,-1.59493 -3.2419,-1.68117 -3.1163,-1.76737 -2.9905,-1.85359 -2.8649,-1.93979 -2.739,-2.02602 -2.6133,-2.11223 -2.4868,-2.18586 -2.3592,-2.24693 -2.2316,-2.308 -2.1042,-2.36907 -1.9766,-2.43013 -1.8491,-2.49121 -1.7216,-2.55227 -1.594,-2.61333 -1.4665,-2.67442 -1.339,-2.73547 -1.2115,-2.77499 -1.0839,-2.79295 -0.9565,-2.81091 -0.8289,-2.82888 -0.7014,-2.84683 -0.5738,-2.86479 -0.4464,-2.88276 -0.3188,-2.90072 -0.1912,-2.91867 -0.064,-2.93664 z"
       style="fill:none;stroke:#000000"
       id="path30" />
  </g>
</svg>
